M48
; DRILL file {KiCad (6.0.8-1)-1} date 
; FORMAT={-:-/ absolute / inch / decimal}
; #@! TF.CreationDate,2022-11-12T20:26:09+08:00
; #@! TF.GenerationSoftware,Kicad,Pcbnew,(6.0.8-1)-1
; #@! TF.FileFunction,Plated,1,2,PTH
FMAT,2
INCH
; #@! TA.AperFunction,Plated,PTH,ViaDrill
T1C0.0079
; #@! TA.AperFunction,Plated,PTH,ComponentDrill
T2C0.0236
%
G90
G05
T1
X4.626Y-3.4409
X4.6299Y-4.0551
X4.6299Y-4.1496
X4.6299Y-4.2441
X4.6339Y-2.6102
X4.6339Y-2.7047
X4.6339Y-2.811
X4.689Y-3.4409
X4.7287Y-3.4016
X4.7362Y-3.6142
X4.7402Y-3.8189
X4.7412Y-3.2165
X4.752Y-3.0551
X4.7717Y-3.1693
X4.7835Y-3.7244
X4.811Y-3.8189
X4.8268Y-3.2437
X4.8346Y-3.0512
X4.837Y-2.9567
X4.8386Y-3.1496
X4.8465Y-2.6102
X4.8465Y-2.7047
X4.8819Y-3.9528
X4.8858Y-3.4882
X4.8858Y-3.5276
X4.8858Y-3.5709
X4.8858Y-3.7087
X4.8976Y-3.8917
X4.9252Y-3.4882
X4.9252Y-3.5276
X4.9252Y-3.5709
X4.937Y-3.3563
X4.9547Y-2.8681
X4.9567Y-2.6102
X4.9567Y-2.7047
X4.9646Y-3.4882
X4.9646Y-3.5276
X4.9646Y-3.5709
X4.9646Y-3.7835
X4.9646Y-3.8622
X4.9724Y-4.0079
X5.0039Y-3.3563
X5.0079Y-3.7126
X5.0079Y-3.7835
X5.0197Y-3.9291
X5.0315Y-3.3031
X5.0315Y-3.8307
X5.0354Y-3.2165
X5.0591Y-3.0512
X5.0748Y-3.3031
X5.1024Y-3.5127
X5.1024Y-3.7283
X5.1299Y-3.0079
X5.1575Y-3.1063
X5.1732Y-2.6102
X5.1732Y-2.7047
X5.1732Y-2.811
X5.1732Y-3.4331
X5.1732Y-3.5748
X5.189Y-3.1614
X5.189Y-3.3189
X5.189Y-3.5157
X5.189Y-3.7717
X5.189Y-4.0787
X5.189Y-4.1654
X5.189Y-4.252
T2
X4.7943Y-4.1286
X4.8435Y-4.1286
X4.8927Y-4.1286
X4.9419Y-4.1286
X4.9911Y-4.1286
X5.0404Y-4.1286
T2
G00X4.7354Y-2.6545
M15
G01X4.7354Y-2.6309
M16
G05
G00X4.7354Y-2.8289
M15
G01X4.7354Y-2.7856
M16
G05
G00X5.0756Y-2.6545
M15
G01X5.0756Y-2.6309
M16
G05
G00X5.0756Y-2.8289
M15
G01X5.0756Y-2.7856
M16
G05
T0
M30
