M48
; DRILL file {KiCad (6.0.8-1)-1} date 
; FORMAT={-:-/ absolute / inch / decimal}
; #@! TF.CreationDate,2022-11-02T17:39:48+08:00
; #@! TF.GenerationSoftware,Kicad,Pcbnew,(6.0.8-1)-1
; #@! TF.FileFunction,Plated,1,2,PTH
FMAT,2
INCH
; #@! TA.AperFunction,Plated,PTH,ViaDrill
T1C0.0079
; #@! TA.AperFunction,Plated,PTH,ViaDrill
T2C0.0157
; #@! TA.AperFunction,Plated,PTH,ComponentDrill
T3C0.0236
%
G90
G05
T1
X4.6024Y-3.248
X4.626Y-3.3504
X4.6388Y-3.5591
X4.6388Y-3.7244
X4.6457Y-3.1181
X4.6693Y-3.6535
X4.6772Y-3.4675
X4.689Y-3.1181
X4.6969Y-3.6339
X4.7205Y-3.3898
X4.7244Y-3.6181
X4.748Y-3.6024
X4.7717Y-3.185
X4.7835Y-4.1614
X4.8346Y-4.1614
X4.8635Y-3.8345
X4.8819Y-3.6181
X4.8819Y-3.6535
X4.8819Y-3.7008
X4.8819Y-4.1614
X4.9173Y-3.6181
X4.9173Y-3.6535
X4.9173Y-3.7008
X4.9291Y-4.1614
X4.9321Y-3.4882
X4.9567Y-3.6181
X4.9567Y-3.6535
X4.9567Y-3.7008
X4.9646Y-4.0118
X4.9921Y-3.5669
X4.9921Y-3.8504
X5.0236Y-3.4882
X5.1929Y-3.1378
T2
X4.7953Y-3.3238
X4.811Y-2.8976
X4.9213Y-3.2165
X4.9646Y-2.8976
X5.1024Y-3.2795
X5.2037Y-3.3583
T3
X4.7825Y-4.2428
X4.8317Y-4.2428
X4.8809Y-4.2428
X4.9301Y-4.2428
X4.9793Y-4.2428
X5.0285Y-4.2428
T3
G00X4.7354Y-2.6545
M15
G01X4.7354Y-2.6309
M16
G05
G00X4.7354Y-2.8289
M15
G01X4.7354Y-2.7856
M16
G05
G00X5.0756Y-2.6545
M15
G01X5.0756Y-2.6309
M16
G05
G00X5.0756Y-2.8289
M15
G01X5.0756Y-2.7856
M16
G05
T0
M30
