%TF.GenerationSoftware,KiCad,Pcbnew,(6.0.8-1)-1*%
%TF.CreationDate,2022-11-02T17:39:45+08:00*%
%TF.ProjectId,RP-Link,52502d4c-696e-46b2-9e6b-696361645f70,rev?*%
%TF.SameCoordinates,Original*%
%TF.FileFunction,Paste,Top*%
%TF.FilePolarity,Positive*%
%FSLAX46Y46*%
G04 Gerber Fmt 4.6, Leading zero omitted, Abs format (unit mm)*
G04 Created by KiCad (PCBNEW (6.0.8-1)-1) date 2022-11-02 17:39:45*
%MOMM*%
%LPD*%
G01*
G04 APERTURE LIST*
G04 Aperture macros list*
%AMRoundRect*
0 Rectangle with rounded corners*
0 $1 Rounding radius*
0 $2 $3 $4 $5 $6 $7 $8 $9 X,Y pos of 4 corners*
0 Add a 4 corners polygon primitive as box body*
4,1,4,$2,$3,$4,$5,$6,$7,$8,$9,$2,$3,0*
0 Add four circle primitives for the rounded corners*
1,1,$1+$1,$2,$3*
1,1,$1+$1,$4,$5*
1,1,$1+$1,$6,$7*
1,1,$1+$1,$8,$9*
0 Add four rect primitives between the rounded corners*
20,1,$1+$1,$2,$3,$4,$5,0*
20,1,$1+$1,$4,$5,$6,$7,0*
20,1,$1+$1,$6,$7,$8,$9,0*
20,1,$1+$1,$8,$9,$2,$3,0*%
%AMOutline5P*
0 Free polygon, 5 corners , with rotation*
0 The origin of the aperture is its center*
0 number of corners: always 5*
0 $1 to $10 corner X, Y*
0 $11 Rotation angle, in degrees counterclockwise*
0 create outline with 5 corners*
4,1,5,$1,$2,$3,$4,$5,$6,$7,$8,$9,$10,$1,$2,$11*%
%AMOutline6P*
0 Free polygon, 6 corners , with rotation*
0 The origin of the aperture is its center*
0 number of corners: always 6*
0 $1 to $12 corner X, Y*
0 $13 Rotation angle, in degrees counterclockwise*
0 create outline with 6 corners*
4,1,6,$1,$2,$3,$4,$5,$6,$7,$8,$9,$10,$11,$12,$1,$2,$13*%
%AMOutline7P*
0 Free polygon, 7 corners , with rotation*
0 The origin of the aperture is its center*
0 number of corners: always 7*
0 $1 to $14 corner X, Y*
0 $15 Rotation angle, in degrees counterclockwise*
0 create outline with 7 corners*
4,1,7,$1,$2,$3,$4,$5,$6,$7,$8,$9,$10,$11,$12,$13,$14,$1,$2,$15*%
%AMOutline8P*
0 Free polygon, 8 corners , with rotation*
0 The origin of the aperture is its center*
0 number of corners: always 8*
0 $1 to $16 corner X, Y*
0 $17 Rotation angle, in degrees counterclockwise*
0 create outline with 8 corners*
4,1,8,$1,$2,$3,$4,$5,$6,$7,$8,$9,$10,$11,$12,$13,$14,$15,$16,$1,$2,$17*%
G04 Aperture macros list end*
%ADD10RoundRect,0.135000X-0.185000X0.135000X-0.185000X-0.135000X0.185000X-0.135000X0.185000X0.135000X0*%
%ADD11RoundRect,0.200000X-0.200000X-0.275000X0.200000X-0.275000X0.200000X0.275000X-0.200000X0.275000X0*%
%ADD12R,1.400000X1.200000*%
%ADD13R,0.250000X0.450000*%
%ADD14Outline5P,-0.100000X0.700000X0.000000X0.800000X0.100000X0.800000X0.100000X-0.800000X-0.100000X-0.800000X90.000000*%
%ADD15RoundRect,0.225000X0.225000X0.250000X-0.225000X0.250000X-0.225000X-0.250000X0.225000X-0.250000X0*%
%ADD16RoundRect,0.140000X0.140000X0.170000X-0.140000X0.170000X-0.140000X-0.170000X0.140000X-0.170000X0*%
%ADD17RoundRect,0.150000X-0.150000X0.512500X-0.150000X-0.512500X0.150000X-0.512500X0.150000X0.512500X0*%
%ADD18RoundRect,0.200000X-0.275000X0.200000X-0.275000X-0.200000X0.275000X-0.200000X0.275000X0.200000X0*%
%ADD19RoundRect,0.225000X-0.250000X0.225000X-0.250000X-0.225000X0.250000X-0.225000X0.250000X0.225000X0*%
%ADD20RoundRect,0.225000X-0.225000X-0.250000X0.225000X-0.250000X0.225000X0.250000X-0.225000X0.250000X0*%
%ADD21RoundRect,0.225000X0.250000X-0.225000X0.250000X0.225000X-0.250000X0.225000X-0.250000X-0.225000X0*%
%ADD22R,2.000000X1.200000*%
%ADD23RoundRect,0.140000X-0.170000X0.140000X-0.170000X-0.140000X0.170000X-0.140000X0.170000X0.140000X0*%
%ADD24RoundRect,0.218750X0.256250X-0.218750X0.256250X0.218750X-0.256250X0.218750X-0.256250X-0.218750X0*%
%ADD25RoundRect,0.249999X-0.395001X-0.395001X0.395001X-0.395001X0.395001X0.395001X-0.395001X0.395001X0*%
%ADD26RoundRect,0.050000X-0.387500X-0.050000X0.387500X-0.050000X0.387500X0.050000X-0.387500X0.050000X0*%
%ADD27RoundRect,0.050000X-0.050000X-0.387500X0.050000X-0.387500X0.050000X0.387500X-0.050000X0.387500X0*%
%ADD28R,0.300000X1.150000*%
G04 APERTURE END LIST*
D10*
%TO.C,R2*%
X130650000Y-68890000D03*
X130650000Y-69910000D03*
%TD*%
D11*
%TO.C,R5*%
X118375000Y-98800000D03*
X120025000Y-98800000D03*
%TD*%
D12*
%TO.C,Y1*%
X118700000Y-102850000D03*
X120900000Y-102850000D03*
X120900000Y-101150000D03*
X118700000Y-101150000D03*
%TD*%
D13*
%TO.C,U1*%
X117450000Y-85875000D03*
X117950000Y-85875000D03*
X118450000Y-85875000D03*
X118950000Y-85875000D03*
X118950000Y-83325000D03*
X118450000Y-83325000D03*
X117950000Y-83325000D03*
X117450000Y-83325000D03*
D14*
X118200000Y-84600000D03*
%TD*%
D15*
%TO.C,C12*%
X119375000Y-94600000D03*
X117825000Y-94600000D03*
%TD*%
D16*
%TO.C,C4*%
X130580000Y-82000000D03*
X129620000Y-82000000D03*
%TD*%
D10*
%TO.C,R3*%
X118450000Y-68690000D03*
X118450000Y-69710000D03*
%TD*%
D17*
%TO.C,U2*%
X130550000Y-77862500D03*
X129600000Y-77862500D03*
X128650000Y-77862500D03*
X128650000Y-80137500D03*
X130550000Y-80137500D03*
%TD*%
D18*
%TO.C,R1*%
X121200000Y-77595000D03*
X121200000Y-79245000D03*
%TD*%
D19*
%TO.C,C9*%
X124800000Y-99025000D03*
X124800000Y-100575000D03*
%TD*%
D15*
%TO.C,C2*%
X120275000Y-104800000D03*
X118725000Y-104800000D03*
%TD*%
D20*
%TO.C,C10*%
X130625000Y-92400000D03*
X132175000Y-92400000D03*
%TD*%
%TO.C,C14*%
X130625000Y-89400000D03*
X132175000Y-89400000D03*
%TD*%
D21*
%TO.C,C1*%
X123000000Y-102575000D03*
X123000000Y-101025000D03*
%TD*%
D15*
%TO.C,C13*%
X119375000Y-90400000D03*
X117825000Y-90400000D03*
%TD*%
D21*
%TO.C,C7*%
X125000000Y-85975000D03*
X125000000Y-84425000D03*
%TD*%
D20*
%TO.C,C15*%
X130625000Y-87600000D03*
X132175000Y-87600000D03*
%TD*%
D19*
%TO.C,C6*%
X126600000Y-99025000D03*
X126600000Y-100575000D03*
%TD*%
D22*
%TO.C,SW1*%
X118600000Y-79200000D03*
X118600000Y-74800000D03*
%TD*%
D20*
%TO.C,C11*%
X130625000Y-94000000D03*
X132175000Y-94000000D03*
%TD*%
D18*
%TO.C,R7*%
X128400000Y-84375000D03*
X128400000Y-86025000D03*
%TD*%
D23*
%TO.C,C3*%
X131900000Y-77720000D03*
X131900000Y-78680000D03*
%TD*%
D24*
%TO.C,D1*%
X130600000Y-102787500D03*
X130600000Y-101212500D03*
%TD*%
D18*
%TO.C,R8*%
X130600000Y-97775000D03*
X130600000Y-99425000D03*
%TD*%
D25*
%TO.C,U3*%
X125800000Y-92200000D03*
X124200000Y-92200000D03*
X125800000Y-93800000D03*
X124200000Y-93800000D03*
D26*
X121562500Y-90400000D03*
X121562500Y-90800000D03*
X121562500Y-91200000D03*
X121562500Y-91600000D03*
X121562500Y-92000000D03*
X121562500Y-92400000D03*
X121562500Y-92800000D03*
X121562500Y-93200000D03*
X121562500Y-93600000D03*
X121562500Y-94000000D03*
X121562500Y-94400000D03*
X121562500Y-94800000D03*
X121562500Y-95200000D03*
X121562500Y-95600000D03*
D27*
X122400000Y-96437500D03*
X122800000Y-96437500D03*
X123200000Y-96437500D03*
X123600000Y-96437500D03*
X124000000Y-96437500D03*
X124400000Y-96437500D03*
X124800000Y-96437500D03*
X125200000Y-96437500D03*
X125600000Y-96437500D03*
X126000000Y-96437500D03*
X126400000Y-96437500D03*
X126800000Y-96437500D03*
X127200000Y-96437500D03*
X127600000Y-96437500D03*
D26*
X128437500Y-95600000D03*
X128437500Y-95200000D03*
X128437500Y-94800000D03*
X128437500Y-94400000D03*
X128437500Y-94000000D03*
X128437500Y-93600000D03*
X128437500Y-93200000D03*
X128437500Y-92800000D03*
X128437500Y-92400000D03*
X128437500Y-92000000D03*
X128437500Y-91600000D03*
X128437500Y-91200000D03*
X128437500Y-90800000D03*
X128437500Y-90400000D03*
D27*
X127600000Y-89562500D03*
X127200000Y-89562500D03*
X126800000Y-89562500D03*
X126400000Y-89562500D03*
X126000000Y-89562500D03*
X125600000Y-89562500D03*
X125200000Y-89562500D03*
X124800000Y-89562500D03*
X124400000Y-89562500D03*
X124000000Y-89562500D03*
X123600000Y-89562500D03*
X123200000Y-89562500D03*
X122800000Y-89562500D03*
X122400000Y-89562500D03*
%TD*%
D18*
%TO.C,R6*%
X126800000Y-84375000D03*
X126800000Y-86025000D03*
%TD*%
D21*
%TO.C,C8*%
X123200000Y-85975000D03*
X123200000Y-84425000D03*
%TD*%
D28*
%TO.C,J1*%
X127950000Y-71870000D03*
X127150000Y-71870000D03*
X125850000Y-71870000D03*
X124850000Y-71870000D03*
X124350000Y-71870000D03*
X123350000Y-71870000D03*
X122050000Y-71870000D03*
X121250000Y-71870000D03*
X121550000Y-71870000D03*
X122350000Y-71870000D03*
X122850000Y-71870000D03*
X123850000Y-71870000D03*
X125350000Y-71870000D03*
X126350000Y-71870000D03*
X126850000Y-71870000D03*
X127650000Y-71870000D03*
%TD*%
D20*
%TO.C,C5*%
X117625000Y-81400000D03*
X119175000Y-81400000D03*
%TD*%
D11*
%TO.C,R4*%
X117775000Y-88600000D03*
X119425000Y-88600000D03*
%TD*%
M02*
