%TF.GenerationSoftware,KiCad,Pcbnew,(6.0.8-1)-1*%
%TF.CreationDate,2022-11-12T20:26:07+08:00*%
%TF.ProjectId,RP-Link,52502d4c-696e-46b2-9e6b-696361645f70,rev?*%
%TF.SameCoordinates,Original*%
%TF.FileFunction,Soldermask,Top*%
%TF.FilePolarity,Negative*%
%FSLAX46Y46*%
G04 Gerber Fmt 4.6, Leading zero omitted, Abs format (unit mm)*
G04 Created by KiCad (PCBNEW (6.0.8-1)-1) date 2022-11-12 20:26:07*
%MOMM*%
%LPD*%
G01*
G04 APERTURE LIST*
G04 Aperture macros list*
%AMRoundRect*
0 Rectangle with rounded corners*
0 $1 Rounding radius*
0 $2 $3 $4 $5 $6 $7 $8 $9 X,Y pos of 4 corners*
0 Add a 4 corners polygon primitive as box body*
4,1,4,$2,$3,$4,$5,$6,$7,$8,$9,$2,$3,0*
0 Add four circle primitives for the rounded corners*
1,1,$1+$1,$2,$3*
1,1,$1+$1,$4,$5*
1,1,$1+$1,$6,$7*
1,1,$1+$1,$8,$9*
0 Add four rect primitives between the rounded corners*
20,1,$1+$1,$2,$3,$4,$5,0*
20,1,$1+$1,$4,$5,$6,$7,0*
20,1,$1+$1,$6,$7,$8,$9,0*
20,1,$1+$1,$8,$9,$2,$3,0*%
%AMOutline5P*
0 Free polygon, 5 corners , with rotation*
0 The origin of the aperture is its center*
0 number of corners: always 5*
0 $1 to $10 corner X, Y*
0 $11 Rotation angle, in degrees counterclockwise*
0 create outline with 5 corners*
4,1,5,$1,$2,$3,$4,$5,$6,$7,$8,$9,$10,$1,$2,$11*%
%AMOutline6P*
0 Free polygon, 6 corners , with rotation*
0 The origin of the aperture is its center*
0 number of corners: always 6*
0 $1 to $12 corner X, Y*
0 $13 Rotation angle, in degrees counterclockwise*
0 create outline with 6 corners*
4,1,6,$1,$2,$3,$4,$5,$6,$7,$8,$9,$10,$11,$12,$1,$2,$13*%
%AMOutline7P*
0 Free polygon, 7 corners , with rotation*
0 The origin of the aperture is its center*
0 number of corners: always 7*
0 $1 to $14 corner X, Y*
0 $15 Rotation angle, in degrees counterclockwise*
0 create outline with 7 corners*
4,1,7,$1,$2,$3,$4,$5,$6,$7,$8,$9,$10,$11,$12,$13,$14,$1,$2,$15*%
%AMOutline8P*
0 Free polygon, 8 corners , with rotation*
0 The origin of the aperture is its center*
0 number of corners: always 8*
0 $1 to $16 corner X, Y*
0 $17 Rotation angle, in degrees counterclockwise*
0 create outline with 8 corners*
4,1,8,$1,$2,$3,$4,$5,$6,$7,$8,$9,$10,$11,$12,$13,$14,$15,$16,$1,$2,$17*%
G04 Aperture macros list end*
%ADD10RoundRect,0.135000X0.135000X0.185000X-0.135000X0.185000X-0.135000X-0.185000X0.135000X-0.185000X0*%
%ADD11RoundRect,0.135000X-0.135000X-0.185000X0.135000X-0.185000X0.135000X0.185000X-0.135000X0.185000X0*%
%ADD12R,1.400000X1.200000*%
%ADD13R,0.450000X0.250000*%
%ADD14Outline5P,-0.100000X0.700000X0.000000X0.800000X0.100000X0.800000X0.100000X-0.800000X-0.100000X-0.800000X0.000000*%
%ADD15RoundRect,0.140000X-0.170000X0.140000X-0.170000X-0.140000X0.170000X-0.140000X0.170000X0.140000X0*%
%ADD16RoundRect,0.225000X0.225000X0.250000X-0.225000X0.250000X-0.225000X-0.250000X0.225000X-0.250000X0*%
%ADD17RoundRect,0.150000X-0.150000X0.512500X-0.150000X-0.512500X0.150000X-0.512500X0.150000X0.512500X0*%
%ADD18RoundRect,0.135000X-0.185000X0.135000X-0.185000X-0.135000X0.185000X-0.135000X0.185000X0.135000X0*%
%ADD19RoundRect,0.140000X0.140000X0.170000X-0.140000X0.170000X-0.140000X-0.170000X0.140000X-0.170000X0*%
%ADD20RoundRect,0.140000X-0.140000X-0.170000X0.140000X-0.170000X0.140000X0.170000X-0.140000X0.170000X0*%
%ADD21RoundRect,0.140000X0.170000X-0.140000X0.170000X0.140000X-0.170000X0.140000X-0.170000X-0.140000X0*%
%ADD22RoundRect,0.225000X0.225000X0.475000X-0.225000X0.475000X-0.225000X-0.475000X0.225000X-0.475000X0*%
%ADD23O,0.900000X1.400000*%
%ADD24R,1.200000X2.000000*%
%ADD25RoundRect,0.225000X-0.250000X0.225000X-0.250000X-0.225000X0.250000X-0.225000X0.250000X0.225000X0*%
%ADD26RoundRect,0.218750X0.256250X-0.218750X0.256250X0.218750X-0.256250X0.218750X-0.256250X-0.218750X0*%
%ADD27RoundRect,0.050000X-0.387500X-0.050000X0.387500X-0.050000X0.387500X0.050000X-0.387500X0.050000X0*%
%ADD28RoundRect,0.050000X-0.050000X-0.387500X0.050000X-0.387500X0.050000X0.387500X-0.050000X0.387500X0*%
%ADD29R,3.200000X3.200000*%
%ADD30C,0.650000*%
%ADD31R,0.300000X1.150000*%
%ADD32O,1.000000X2.100000*%
%ADD33O,1.000000X1.600000*%
%ADD34R,1.100000X1.100000*%
G04 APERTURE END LIST*
D10*
%TO.C,R2*%
X122860000Y-75100000D03*
X121840000Y-75100000D03*
%TD*%
D11*
%TO.C,R5*%
X123090000Y-95600000D03*
X124110000Y-95600000D03*
%TD*%
D12*
%TO.C,Y1*%
X122200000Y-98750000D03*
X124400000Y-98750000D03*
X124400000Y-97050000D03*
X122200000Y-97050000D03*
%TD*%
D13*
%TO.C,U1*%
X118525000Y-82550000D03*
X118525000Y-83050000D03*
X118525000Y-83550000D03*
X118525000Y-84050000D03*
X121075000Y-84050000D03*
X121075000Y-83550000D03*
X121075000Y-83050000D03*
X121075000Y-82550000D03*
D14*
X119800000Y-83300000D03*
%TD*%
D15*
%TO.C,C12*%
X120300000Y-90820000D03*
X120300000Y-91780000D03*
%TD*%
D16*
%TO.C,C4*%
X129475000Y-81700000D03*
X127925000Y-81700000D03*
%TD*%
D10*
%TO.C,R3*%
X122860000Y-74000000D03*
X121840000Y-74000000D03*
%TD*%
D17*
%TO.C,U2*%
X129450000Y-77532500D03*
X128500000Y-77532500D03*
X127550000Y-77532500D03*
X127550000Y-79807500D03*
X129450000Y-79807500D03*
%TD*%
D18*
%TO.C,R1*%
X118400000Y-80500000D03*
X118400000Y-81520000D03*
%TD*%
D15*
%TO.C,C9*%
X126100000Y-95120000D03*
X126100000Y-96080000D03*
%TD*%
D19*
%TO.C,C2*%
X123980000Y-100400000D03*
X123020000Y-100400000D03*
%TD*%
D20*
%TO.C,C10*%
X130420000Y-87200000D03*
X131380000Y-87200000D03*
%TD*%
D21*
%TO.C,C14*%
X127800000Y-84880000D03*
X127800000Y-83920000D03*
%TD*%
%TO.C,C1*%
X126100000Y-98080000D03*
X126100000Y-97120000D03*
%TD*%
D19*
%TO.C,C13*%
X120080000Y-87400000D03*
X119120000Y-87400000D03*
%TD*%
D22*
%TO.C,J2*%
X128025000Y-104867500D03*
D23*
X126775000Y-104867500D03*
X125525000Y-104867500D03*
X124275000Y-104867500D03*
X123025000Y-104867500D03*
X121775000Y-104867500D03*
%TD*%
D21*
%TO.C,C7*%
X123600000Y-83350000D03*
X123600000Y-82390000D03*
%TD*%
%TO.C,C15*%
X128900000Y-84880000D03*
X128900000Y-83920000D03*
%TD*%
D15*
%TO.C,C6*%
X127200000Y-95120000D03*
X127200000Y-96080000D03*
%TD*%
D24*
%TO.C,SW1*%
X122800000Y-77500000D03*
X118400000Y-77500000D03*
%TD*%
D20*
%TO.C,C11*%
X130420000Y-90800000D03*
X131380000Y-90800000D03*
%TD*%
D18*
%TO.C,R7*%
X125750000Y-82390000D03*
X125750000Y-83410000D03*
%TD*%
D25*
%TO.C,C3*%
X131000000Y-77325000D03*
X131000000Y-78875000D03*
%TD*%
D26*
%TO.C,D1*%
X129600000Y-98787500D03*
X129600000Y-97212500D03*
%TD*%
D18*
%TO.C,R8*%
X129600000Y-94690000D03*
X129600000Y-95710000D03*
%TD*%
D27*
%TO.C,U3*%
X121762500Y-87200000D03*
X121762500Y-87600000D03*
X121762500Y-88000000D03*
X121762500Y-88400000D03*
X121762500Y-88800000D03*
X121762500Y-89200000D03*
X121762500Y-89600000D03*
X121762500Y-90000000D03*
X121762500Y-90400000D03*
X121762500Y-90800000D03*
X121762500Y-91200000D03*
X121762500Y-91600000D03*
X121762500Y-92000000D03*
X121762500Y-92400000D03*
D28*
X122600000Y-93237500D03*
X123000000Y-93237500D03*
X123400000Y-93237500D03*
X123800000Y-93237500D03*
X124200000Y-93237500D03*
X124600000Y-93237500D03*
X125000000Y-93237500D03*
X125400000Y-93237500D03*
X125800000Y-93237500D03*
X126200000Y-93237500D03*
X126600000Y-93237500D03*
X127000000Y-93237500D03*
X127400000Y-93237500D03*
X127800000Y-93237500D03*
D27*
X128637500Y-92400000D03*
X128637500Y-92000000D03*
X128637500Y-91600000D03*
X128637500Y-91200000D03*
X128637500Y-90800000D03*
X128637500Y-90400000D03*
X128637500Y-90000000D03*
X128637500Y-89600000D03*
X128637500Y-89200000D03*
X128637500Y-88800000D03*
X128637500Y-88400000D03*
X128637500Y-88000000D03*
X128637500Y-87600000D03*
X128637500Y-87200000D03*
D28*
X127800000Y-86362500D03*
X127400000Y-86362500D03*
X127000000Y-86362500D03*
X126600000Y-86362500D03*
X126200000Y-86362500D03*
X125800000Y-86362500D03*
X125400000Y-86362500D03*
X125000000Y-86362500D03*
X124600000Y-86362500D03*
X124200000Y-86362500D03*
X123800000Y-86362500D03*
X123400000Y-86362500D03*
X123000000Y-86362500D03*
X122600000Y-86362500D03*
D29*
X125200000Y-89800000D03*
%TD*%
D18*
%TO.C,R6*%
X124650000Y-82390000D03*
X124650000Y-83410000D03*
%TD*%
D21*
%TO.C,C8*%
X122600000Y-83350000D03*
X122600000Y-82390000D03*
%TD*%
D30*
%TO.C,J1*%
X127490000Y-70805000D03*
X121710000Y-70805000D03*
D31*
X127950000Y-71870000D03*
X127150000Y-71870000D03*
X125850000Y-71870000D03*
X124850000Y-71870000D03*
X124350000Y-71870000D03*
X123350000Y-71870000D03*
X122050000Y-71870000D03*
X121250000Y-71870000D03*
X121550000Y-71870000D03*
X122350000Y-71870000D03*
X122850000Y-71870000D03*
X123850000Y-71870000D03*
X125350000Y-71870000D03*
X126350000Y-71870000D03*
X126850000Y-71870000D03*
X127650000Y-71870000D03*
D32*
X120280000Y-71305000D03*
D33*
X120280000Y-67125000D03*
D32*
X128920000Y-71305000D03*
D33*
X128920000Y-67125000D03*
%TD*%
D34*
%TO.C,D2*%
X130700000Y-74800000D03*
X127900000Y-74800000D03*
%TD*%
D21*
%TO.C,C5*%
X121200000Y-81470000D03*
X121200000Y-80510000D03*
%TD*%
D11*
%TO.C,R4*%
X119090000Y-86400000D03*
X120110000Y-86400000D03*
%TD*%
M02*
