%TF.GenerationSoftware,KiCad,Pcbnew,(6.0.8-1)-1*%
%TF.CreationDate,2022-11-02T17:39:45+08:00*%
%TF.ProjectId,RP-Link,52502d4c-696e-46b2-9e6b-696361645f70,rev?*%
%TF.SameCoordinates,Original*%
%TF.FileFunction,Copper,L2,Bot*%
%TF.FilePolarity,Positive*%
%FSLAX46Y46*%
G04 Gerber Fmt 4.6, Leading zero omitted, Abs format (unit mm)*
G04 Created by KiCad (PCBNEW (6.0.8-1)-1) date 2022-11-02 17:39:45*
%MOMM*%
%LPD*%
G01*
G04 APERTURE LIST*
G04 Aperture macros list*
%AMRoundRect*
0 Rectangle with rounded corners*
0 $1 Rounding radius*
0 $2 $3 $4 $5 $6 $7 $8 $9 X,Y pos of 4 corners*
0 Add a 4 corners polygon primitive as box body*
4,1,4,$2,$3,$4,$5,$6,$7,$8,$9,$2,$3,0*
0 Add four circle primitives for the rounded corners*
1,1,$1+$1,$2,$3*
1,1,$1+$1,$4,$5*
1,1,$1+$1,$6,$7*
1,1,$1+$1,$8,$9*
0 Add four rect primitives between the rounded corners*
20,1,$1+$1,$2,$3,$4,$5,0*
20,1,$1+$1,$4,$5,$6,$7,0*
20,1,$1+$1,$6,$7,$8,$9,0*
20,1,$1+$1,$8,$9,$2,$3,0*%
G04 Aperture macros list end*
%TA.AperFunction,ComponentPad*%
%ADD10RoundRect,0.225000X0.225000X0.475000X-0.225000X0.475000X-0.225000X-0.475000X0.225000X-0.475000X0*%
%TD*%
%TA.AperFunction,ComponentPad*%
%ADD11O,0.900000X1.400000*%
%TD*%
%TA.AperFunction,ComponentPad*%
%ADD12O,1.000000X2.100000*%
%TD*%
%TA.AperFunction,ComponentPad*%
%ADD13O,1.000000X1.600000*%
%TD*%
%TA.AperFunction,ViaPad*%
%ADD14C,0.400000*%
%TD*%
%TA.AperFunction,ViaPad*%
%ADD15C,0.800000*%
%TD*%
%TA.AperFunction,Conductor*%
%ADD16C,0.500000*%
%TD*%
%TA.AperFunction,Conductor*%
%ADD17C,0.150000*%
%TD*%
%TA.AperFunction,Conductor*%
%ADD18C,0.250000*%
%TD*%
G04 APERTURE END LIST*
D10*
%TO.P,J2,1,Pin_1*%
%TO.N,+3.3V*%
X127725000Y-107767500D03*
D11*
%TO.P,J2,2,Pin_2*%
%TO.N,GND*%
X126475000Y-107767500D03*
%TO.P,J2,3,Pin_3*%
%TO.N,/GPIO2*%
X125225000Y-107767500D03*
%TO.P,J2,4,Pin_4*%
%TO.N,/GPIO3*%
X123975000Y-107767500D03*
%TO.P,J2,5,Pin_5*%
%TO.N,/GPIO4*%
X122725000Y-107767500D03*
%TO.P,J2,6,Pin_6*%
%TO.N,/GPIO5*%
X121475000Y-107767500D03*
%TD*%
D12*
%TO.P,J1,S1,SHIELD*%
%TO.N,GND*%
X120280000Y-71305000D03*
D13*
X120280000Y-67125000D03*
D12*
X128920000Y-71305000D03*
D13*
X128920000Y-67125000D03*
%TD*%
D14*
%TO.N,GND*%
X117825000Y-90400000D03*
D15*
X129600000Y-83300000D03*
D14*
X124900000Y-92800000D03*
X124000000Y-91900000D03*
X117825000Y-94600000D03*
X118000000Y-79200000D03*
X124900000Y-94000000D03*
X126100000Y-101900000D03*
X131900000Y-79700000D03*
X124000000Y-92800000D03*
X125900000Y-92800000D03*
D15*
X132175000Y-85300000D03*
D14*
X119100000Y-79200000D03*
D15*
X121800000Y-84425000D03*
D14*
X124900000Y-91900000D03*
X119900000Y-86100000D03*
X125900000Y-91900000D03*
X123532239Y-97396716D03*
X125900000Y-94000000D03*
D15*
X125000000Y-81700000D03*
D14*
X124000000Y-94000000D03*
D15*
%TO.N,VBUS*%
X122200000Y-73600000D03*
X126100000Y-73600000D03*
D14*
%TO.N,+3.3V*%
X116900000Y-82500000D03*
X127600000Y-88600000D03*
X125274500Y-88600000D03*
X118800000Y-88074500D03*
%TO.N,+1V1*%
X126800000Y-90600000D03*
X126800000Y-97800000D03*
%TO.N,/GPIO2*%
X125200000Y-105700000D03*
X120600000Y-91500000D03*
%TO.N,/GPIO3*%
X124000000Y-105700000D03*
X120000000Y-91900000D03*
%TO.N,/GPIO4*%
X119300000Y-92300000D03*
X122800000Y-105700000D03*
%TO.N,/GPIO5*%
X121500000Y-105700000D03*
X118600000Y-92800000D03*
%TO.N,/QSPI_SS*%
X121200000Y-80900000D03*
X117500000Y-85100000D03*
%TD*%
D16*
%TO.N,VBUS*%
X122200000Y-73600000D02*
X126100000Y-73600000D01*
D17*
%TO.N,+3.3V*%
X116900000Y-86174500D02*
X118800000Y-88074500D01*
X116900000Y-82500000D02*
X116900000Y-86174500D01*
X125274500Y-88600000D02*
X127600000Y-88600000D01*
%TO.N,+1V1*%
X126800000Y-90600000D02*
X126800000Y-97800000D01*
%TO.N,/GPIO2*%
X125200000Y-105600000D02*
X120600000Y-101000000D01*
X120600000Y-101000000D02*
X120600000Y-91500000D01*
X125200000Y-105700000D02*
X125200000Y-105600000D01*
%TO.N,/GPIO3*%
X120000000Y-101700000D02*
X124000000Y-105700000D01*
X120000000Y-91900000D02*
X120000000Y-101700000D01*
%TO.N,/GPIO4*%
X119300000Y-102200000D02*
X122800000Y-105700000D01*
X119300000Y-92300000D02*
X119300000Y-102200000D01*
%TO.N,/GPIO5*%
X121500000Y-105700000D02*
X118600000Y-102800000D01*
X118600000Y-102800000D02*
X118600000Y-92800000D01*
D18*
%TO.N,/QSPI_SS*%
X117500000Y-84600000D02*
X117500000Y-85100000D01*
X121200000Y-80900000D02*
X117500000Y-84600000D01*
%TD*%
%TA.AperFunction,Conductor*%
%TO.N,GND*%
G36*
X132162915Y-64810000D02*
G01*
X132177748Y-64812310D01*
X132177752Y-64812310D01*
X132186621Y-64813691D01*
X132195646Y-64812511D01*
X132226081Y-64812239D01*
X132280950Y-64818421D01*
X132288161Y-64819233D01*
X132315664Y-64825510D01*
X132392757Y-64852486D01*
X132418171Y-64864725D01*
X132487325Y-64908177D01*
X132509384Y-64925769D01*
X132567128Y-64983513D01*
X132584720Y-65005571D01*
X132628174Y-65074726D01*
X132640416Y-65100148D01*
X132667387Y-65177227D01*
X132673666Y-65204736D01*
X132679915Y-65260202D01*
X132679650Y-65275867D01*
X132680693Y-65275880D01*
X132680584Y-65284849D01*
X132679202Y-65293724D01*
X132682291Y-65317344D01*
X132683329Y-65325283D01*
X132684393Y-65341621D01*
X132684393Y-111450633D01*
X132682893Y-111470018D01*
X132679202Y-111493724D01*
X132680366Y-111502625D01*
X132680256Y-111511600D01*
X132680038Y-111511597D01*
X132680022Y-111533044D01*
X132669923Y-111609407D01*
X132661333Y-111641313D01*
X132633522Y-111708118D01*
X132625324Y-111727809D01*
X132608736Y-111756384D01*
X132551472Y-111830553D01*
X132528030Y-111853828D01*
X132497354Y-111877164D01*
X132453455Y-111910558D01*
X132424763Y-111926941D01*
X132338004Y-111962334D01*
X132306042Y-111970694D01*
X132233045Y-111979817D01*
X132214982Y-111980766D01*
X132211708Y-111980703D01*
X132202847Y-111979258D01*
X132193940Y-111980358D01*
X132193939Y-111980358D01*
X132177663Y-111982368D01*
X132173429Y-111982891D01*
X132168975Y-111983441D01*
X132153532Y-111984391D01*
X117256471Y-111984391D01*
X117237086Y-111982891D01*
X117222253Y-111980581D01*
X117222249Y-111980581D01*
X117213380Y-111979200D01*
X117204355Y-111980380D01*
X117173920Y-111980652D01*
X117111843Y-111973658D01*
X117084337Y-111967380D01*
X117007250Y-111940406D01*
X116981830Y-111928165D01*
X116912680Y-111884716D01*
X116890620Y-111867123D01*
X116832877Y-111809380D01*
X116815284Y-111787320D01*
X116771835Y-111718170D01*
X116759594Y-111692750D01*
X116732620Y-111615663D01*
X116726341Y-111588155D01*
X116720090Y-111532674D01*
X116720757Y-111517035D01*
X116719308Y-111517017D01*
X116719418Y-111508046D01*
X116720800Y-111499172D01*
X116719636Y-111490269D01*
X116719636Y-111490262D01*
X116716673Y-111467602D01*
X116715609Y-111451266D01*
X116715608Y-92792526D01*
X117886335Y-92792526D01*
X117905153Y-92962975D01*
X117964085Y-93124015D01*
X117995082Y-93170143D01*
X118016500Y-93240417D01*
X118016500Y-102753497D01*
X118015422Y-102769944D01*
X118011465Y-102800000D01*
X118016500Y-102838244D01*
X118031519Y-102952324D01*
X118090314Y-103094267D01*
X118183843Y-103216157D01*
X118190389Y-103221180D01*
X118207902Y-103234618D01*
X118220293Y-103245486D01*
X120770999Y-105796192D01*
X120804406Y-105856211D01*
X120805153Y-105862975D01*
X120864085Y-106024015D01*
X120868322Y-106030321D01*
X120868324Y-106030324D01*
X120912621Y-106096244D01*
X120959730Y-106166349D01*
X121086565Y-106281760D01*
X121100872Y-106289528D01*
X121234177Y-106361907D01*
X121284499Y-106411990D01*
X121299755Y-106481328D01*
X121275103Y-106547907D01*
X121217563Y-106590888D01*
X121058641Y-106649360D01*
X121058639Y-106649361D01*
X121052654Y-106651563D01*
X120988844Y-106691127D01*
X120927957Y-106728879D01*
X120887160Y-106754174D01*
X120745678Y-106887966D01*
X120633989Y-107047475D01*
X120556655Y-107226184D01*
X120555350Y-107232431D01*
X120555349Y-107232434D01*
X120536268Y-107323773D01*
X120516835Y-107416793D01*
X120516500Y-107423185D01*
X120516500Y-108066163D01*
X120531235Y-108211227D01*
X120533144Y-108217318D01*
X120587556Y-108390951D01*
X120587558Y-108390956D01*
X120589465Y-108397041D01*
X120592558Y-108402620D01*
X120677450Y-108555768D01*
X120683870Y-108567350D01*
X120688019Y-108572191D01*
X120688022Y-108572195D01*
X120752167Y-108647034D01*
X120810591Y-108715198D01*
X120964453Y-108834546D01*
X120970176Y-108837362D01*
X120970179Y-108837364D01*
X121112520Y-108907404D01*
X121139171Y-108920518D01*
X121145349Y-108922127D01*
X121145351Y-108922128D01*
X121321425Y-108967992D01*
X121321428Y-108967992D01*
X121327607Y-108969602D01*
X121411597Y-108974004D01*
X121515683Y-108979459D01*
X121515687Y-108979459D01*
X121522064Y-108979793D01*
X121677413Y-108956299D01*
X121708285Y-108951630D01*
X121708286Y-108951630D01*
X121714599Y-108950675D01*
X121720585Y-108948472D01*
X121720591Y-108948471D01*
X121891360Y-108885640D01*
X121891365Y-108885638D01*
X121897346Y-108883437D01*
X122013597Y-108811358D01*
X122034185Y-108798593D01*
X122102620Y-108779697D01*
X122170408Y-108800798D01*
X122177808Y-108806121D01*
X122209406Y-108830631D01*
X122214453Y-108834546D01*
X122220176Y-108837362D01*
X122220179Y-108837364D01*
X122362520Y-108907404D01*
X122389171Y-108920518D01*
X122395349Y-108922127D01*
X122395351Y-108922128D01*
X122571425Y-108967992D01*
X122571428Y-108967992D01*
X122577607Y-108969602D01*
X122661597Y-108974004D01*
X122765683Y-108979459D01*
X122765687Y-108979459D01*
X122772064Y-108979793D01*
X122927413Y-108956299D01*
X122958285Y-108951630D01*
X122958286Y-108951630D01*
X122964599Y-108950675D01*
X122970585Y-108948472D01*
X122970591Y-108948471D01*
X123141360Y-108885640D01*
X123141365Y-108885638D01*
X123147346Y-108883437D01*
X123263597Y-108811358D01*
X123284185Y-108798593D01*
X123352620Y-108779697D01*
X123420408Y-108800798D01*
X123427808Y-108806121D01*
X123459406Y-108830631D01*
X123464453Y-108834546D01*
X123470176Y-108837362D01*
X123470179Y-108837364D01*
X123612520Y-108907404D01*
X123639171Y-108920518D01*
X123645349Y-108922127D01*
X123645351Y-108922128D01*
X123821425Y-108967992D01*
X123821428Y-108967992D01*
X123827607Y-108969602D01*
X123911597Y-108974004D01*
X124015683Y-108979459D01*
X124015687Y-108979459D01*
X124022064Y-108979793D01*
X124177413Y-108956299D01*
X124208285Y-108951630D01*
X124208286Y-108951630D01*
X124214599Y-108950675D01*
X124220585Y-108948472D01*
X124220591Y-108948471D01*
X124391360Y-108885640D01*
X124391365Y-108885638D01*
X124397346Y-108883437D01*
X124513597Y-108811358D01*
X124534185Y-108798593D01*
X124602620Y-108779697D01*
X124670408Y-108800798D01*
X124677808Y-108806121D01*
X124709406Y-108830631D01*
X124714453Y-108834546D01*
X124720176Y-108837362D01*
X124720179Y-108837364D01*
X124862520Y-108907404D01*
X124889171Y-108920518D01*
X124895349Y-108922127D01*
X124895351Y-108922128D01*
X125071425Y-108967992D01*
X125071428Y-108967992D01*
X125077607Y-108969602D01*
X125161597Y-108974004D01*
X125265683Y-108979459D01*
X125265687Y-108979459D01*
X125272064Y-108979793D01*
X125427413Y-108956299D01*
X125458285Y-108951630D01*
X125458286Y-108951630D01*
X125464599Y-108950675D01*
X125470585Y-108948472D01*
X125470591Y-108948471D01*
X125641360Y-108885640D01*
X125641365Y-108885638D01*
X125647346Y-108883437D01*
X125784637Y-108798313D01*
X125853072Y-108779415D01*
X125920860Y-108800517D01*
X125928259Y-108805839D01*
X125959680Y-108830211D01*
X125970440Y-108836935D01*
X126133625Y-108917232D01*
X126145519Y-108921655D01*
X126203470Y-108936751D01*
X126217564Y-108936317D01*
X126221000Y-108928136D01*
X126221000Y-108926729D01*
X126729000Y-108926729D01*
X126732973Y-108940260D01*
X126739075Y-108941137D01*
X126891136Y-108885190D01*
X126902549Y-108879623D01*
X126952578Y-108848604D01*
X127021014Y-108829706D01*
X127085091Y-108848430D01*
X127145457Y-108885640D01*
X127187899Y-108911802D01*
X127350243Y-108965649D01*
X127357080Y-108966349D01*
X127357082Y-108966350D01*
X127398401Y-108970583D01*
X127451268Y-108976000D01*
X127998732Y-108976000D01*
X128001978Y-108975663D01*
X128001982Y-108975663D01*
X128036083Y-108972125D01*
X128101019Y-108965387D01*
X128151722Y-108948471D01*
X128256324Y-108913573D01*
X128256326Y-108913572D01*
X128263268Y-108911256D01*
X128313655Y-108880076D01*
X128402485Y-108825106D01*
X128408713Y-108821252D01*
X128529552Y-108700202D01*
X128608457Y-108572195D01*
X128615462Y-108560831D01*
X128615463Y-108560829D01*
X128619302Y-108554601D01*
X128673149Y-108392257D01*
X128683500Y-108291232D01*
X128683500Y-107243768D01*
X128672887Y-107141481D01*
X128618756Y-106979232D01*
X128528752Y-106833787D01*
X128407702Y-106712948D01*
X128393781Y-106704367D01*
X128268331Y-106627038D01*
X128268329Y-106627037D01*
X128262101Y-106623198D01*
X128099757Y-106569351D01*
X128092920Y-106568651D01*
X128092918Y-106568650D01*
X128051599Y-106564417D01*
X127998732Y-106559000D01*
X127451268Y-106559000D01*
X127448022Y-106559337D01*
X127448018Y-106559337D01*
X127413917Y-106562875D01*
X127348981Y-106569613D01*
X127342440Y-106571795D01*
X127342441Y-106571795D01*
X127193676Y-106621427D01*
X127193674Y-106621428D01*
X127186732Y-106623744D01*
X127180508Y-106627596D01*
X127180507Y-106627596D01*
X127087394Y-106685216D01*
X127018942Y-106704054D01*
X126965462Y-106691127D01*
X126816379Y-106617770D01*
X126804481Y-106613345D01*
X126746530Y-106598249D01*
X126732436Y-106598683D01*
X126729000Y-106606864D01*
X126729000Y-108926729D01*
X126221000Y-108926729D01*
X126221000Y-106608271D01*
X126217027Y-106594740D01*
X126210925Y-106593863D01*
X126058864Y-106649810D01*
X126047451Y-106655377D01*
X125916237Y-106736733D01*
X125847801Y-106755631D01*
X125780013Y-106734529D01*
X125772623Y-106729213D01*
X125735547Y-106700454D01*
X125729824Y-106697638D01*
X125729821Y-106697636D01*
X125566556Y-106617300D01*
X125560829Y-106614482D01*
X125554651Y-106612873D01*
X125554649Y-106612872D01*
X125516991Y-106603063D01*
X125487655Y-106595422D01*
X125426777Y-106558895D01*
X125395310Y-106495253D01*
X125403247Y-106424701D01*
X125448066Y-106369640D01*
X125462803Y-106360926D01*
X125588174Y-106297871D01*
X125594958Y-106294459D01*
X125600729Y-106289530D01*
X125600732Y-106289528D01*
X125719578Y-106188023D01*
X125725355Y-106183089D01*
X125825424Y-106043830D01*
X125889385Y-105884720D01*
X125913547Y-105714947D01*
X125913704Y-105700000D01*
X125893102Y-105529758D01*
X125832487Y-105369344D01*
X125735357Y-105228019D01*
X125729686Y-105222966D01*
X125612993Y-105118996D01*
X125612990Y-105118994D01*
X125607321Y-105113943D01*
X125479149Y-105046079D01*
X125449013Y-105023820D01*
X121220405Y-100795212D01*
X121186379Y-100732900D01*
X121183500Y-100706117D01*
X121183500Y-97792526D01*
X126086335Y-97792526D01*
X126105153Y-97962975D01*
X126107762Y-97970106D01*
X126107763Y-97970108D01*
X126115688Y-97991764D01*
X126164085Y-98124015D01*
X126259730Y-98266349D01*
X126386565Y-98381760D01*
X126537268Y-98463585D01*
X126703139Y-98507101D01*
X126790586Y-98508474D01*
X126867003Y-98509675D01*
X126867006Y-98509675D01*
X126874602Y-98509794D01*
X126882006Y-98508098D01*
X126882008Y-98508098D01*
X126944846Y-98493706D01*
X127041759Y-98471510D01*
X127194958Y-98394459D01*
X127200729Y-98389530D01*
X127200732Y-98389528D01*
X127319578Y-98288023D01*
X127325355Y-98283089D01*
X127425424Y-98143830D01*
X127489385Y-97984720D01*
X127513547Y-97814947D01*
X127513704Y-97800000D01*
X127493102Y-97629758D01*
X127432487Y-97469344D01*
X127428188Y-97463089D01*
X127428186Y-97463085D01*
X127405660Y-97430310D01*
X127383500Y-97358943D01*
X127383500Y-91042749D01*
X127407177Y-90969223D01*
X127420993Y-90949996D01*
X127425424Y-90943830D01*
X127489385Y-90784720D01*
X127513547Y-90614947D01*
X127513704Y-90600000D01*
X127493102Y-90429758D01*
X127432487Y-90269344D01*
X127335357Y-90128019D01*
X127329686Y-90122966D01*
X127212993Y-90018996D01*
X127212990Y-90018994D01*
X127207321Y-90013943D01*
X127199325Y-90009709D01*
X127062481Y-89937254D01*
X127062482Y-89937254D01*
X127055769Y-89933700D01*
X127038196Y-89929286D01*
X126896822Y-89893775D01*
X126896818Y-89893775D01*
X126889451Y-89891924D01*
X126881852Y-89891884D01*
X126881850Y-89891884D01*
X126810394Y-89891510D01*
X126717969Y-89891026D01*
X126710589Y-89892798D01*
X126710587Y-89892798D01*
X126558602Y-89929286D01*
X126558598Y-89929287D01*
X126551223Y-89931058D01*
X126398839Y-90009709D01*
X126269615Y-90122439D01*
X126171010Y-90262739D01*
X126108718Y-90422509D01*
X126086335Y-90592526D01*
X126105153Y-90762975D01*
X126107762Y-90770106D01*
X126107763Y-90770108D01*
X126116424Y-90793775D01*
X126164085Y-90924015D01*
X126195082Y-90970143D01*
X126216500Y-91040417D01*
X126216500Y-97358166D01*
X126193586Y-97430617D01*
X126171010Y-97462739D01*
X126108718Y-97622509D01*
X126086335Y-97792526D01*
X121183500Y-97792526D01*
X121183500Y-91942749D01*
X121207177Y-91869223D01*
X121220993Y-91849996D01*
X121225424Y-91843830D01*
X121289385Y-91684720D01*
X121302714Y-91591066D01*
X121312966Y-91519031D01*
X121312966Y-91519027D01*
X121313547Y-91514947D01*
X121313704Y-91500000D01*
X121293102Y-91329758D01*
X121287412Y-91314698D01*
X121235171Y-91176447D01*
X121232487Y-91169344D01*
X121135357Y-91028019D01*
X121129686Y-91022966D01*
X121012993Y-90918996D01*
X121012990Y-90918994D01*
X121007321Y-90913943D01*
X120999325Y-90909709D01*
X120862481Y-90837254D01*
X120862482Y-90837254D01*
X120855769Y-90833700D01*
X120838196Y-90829286D01*
X120696822Y-90793775D01*
X120696818Y-90793775D01*
X120689451Y-90791924D01*
X120681852Y-90791884D01*
X120681850Y-90791884D01*
X120610394Y-90791510D01*
X120517969Y-90791026D01*
X120510589Y-90792798D01*
X120510587Y-90792798D01*
X120358602Y-90829286D01*
X120358598Y-90829287D01*
X120351223Y-90831058D01*
X120198839Y-90909709D01*
X120069615Y-91022439D01*
X120056980Y-91040417D01*
X119985237Y-91142496D01*
X119929702Y-91186727D01*
X119911568Y-91192563D01*
X119851430Y-91207000D01*
X119758602Y-91229286D01*
X119758598Y-91229287D01*
X119751223Y-91231058D01*
X119598839Y-91309709D01*
X119469615Y-91422439D01*
X119465248Y-91428653D01*
X119388517Y-91537829D01*
X119332982Y-91582060D01*
X119284771Y-91591376D01*
X119217969Y-91591026D01*
X119210589Y-91592798D01*
X119210587Y-91592798D01*
X119058602Y-91629286D01*
X119058598Y-91629287D01*
X119051223Y-91631058D01*
X118898839Y-91709709D01*
X118769615Y-91822439D01*
X118671010Y-91962739D01*
X118652239Y-92010884D01*
X118608858Y-92067085D01*
X118541978Y-92090911D01*
X118534191Y-92091111D01*
X118517969Y-92091026D01*
X118510590Y-92092798D01*
X118510586Y-92092798D01*
X118358602Y-92129286D01*
X118358598Y-92129287D01*
X118351223Y-92131058D01*
X118198839Y-92209709D01*
X118069615Y-92322439D01*
X117971010Y-92462739D01*
X117908718Y-92622509D01*
X117886335Y-92792526D01*
X116715608Y-92792526D01*
X116715608Y-87119491D01*
X116735610Y-87051370D01*
X116789266Y-87004877D01*
X116859540Y-86994773D01*
X116924120Y-87024267D01*
X116930701Y-87030394D01*
X117502825Y-87602519D01*
X118071000Y-88170694D01*
X118104406Y-88230713D01*
X118105153Y-88237475D01*
X118107765Y-88244612D01*
X118107765Y-88244613D01*
X118114398Y-88262739D01*
X118164085Y-88398515D01*
X118168322Y-88404821D01*
X118168324Y-88404824D01*
X118185271Y-88430043D01*
X118259730Y-88540849D01*
X118386565Y-88656260D01*
X118537268Y-88738085D01*
X118703139Y-88781601D01*
X118790586Y-88782974D01*
X118867003Y-88784175D01*
X118867006Y-88784175D01*
X118874602Y-88784294D01*
X118882006Y-88782598D01*
X118882008Y-88782598D01*
X118944846Y-88768206D01*
X119041759Y-88746010D01*
X119194958Y-88668959D01*
X119200729Y-88664030D01*
X119200732Y-88664028D01*
X119284449Y-88592526D01*
X124560835Y-88592526D01*
X124568729Y-88664028D01*
X124577118Y-88740011D01*
X124579653Y-88762975D01*
X124582262Y-88770106D01*
X124582263Y-88770108D01*
X124590188Y-88791764D01*
X124638585Y-88924015D01*
X124734230Y-89066349D01*
X124861065Y-89181760D01*
X125011768Y-89263585D01*
X125177639Y-89307101D01*
X125265086Y-89308474D01*
X125341503Y-89309675D01*
X125341506Y-89309675D01*
X125349102Y-89309794D01*
X125356506Y-89308098D01*
X125356508Y-89308098D01*
X125419346Y-89293706D01*
X125516259Y-89271510D01*
X125664535Y-89196935D01*
X125721149Y-89183500D01*
X127157770Y-89183500D01*
X127217892Y-89198769D01*
X127337268Y-89263585D01*
X127503139Y-89307101D01*
X127590586Y-89308474D01*
X127667003Y-89309675D01*
X127667006Y-89309675D01*
X127674602Y-89309794D01*
X127682006Y-89308098D01*
X127682008Y-89308098D01*
X127744846Y-89293706D01*
X127841759Y-89271510D01*
X127994958Y-89194459D01*
X128000729Y-89189530D01*
X128000732Y-89189528D01*
X128119578Y-89088023D01*
X128125355Y-89083089D01*
X128225424Y-88943830D01*
X128289385Y-88784720D01*
X128296538Y-88734462D01*
X128312966Y-88619031D01*
X128312966Y-88619027D01*
X128313547Y-88614947D01*
X128313704Y-88600000D01*
X128293102Y-88429758D01*
X128283681Y-88404824D01*
X128235171Y-88276447D01*
X128232487Y-88269344D01*
X128135357Y-88128019D01*
X128129686Y-88122966D01*
X128012993Y-88018996D01*
X128012990Y-88018994D01*
X128007321Y-88013943D01*
X127999325Y-88009709D01*
X127862481Y-87937254D01*
X127862482Y-87937254D01*
X127855769Y-87933700D01*
X127838196Y-87929286D01*
X127696822Y-87893775D01*
X127696818Y-87893775D01*
X127689451Y-87891924D01*
X127681852Y-87891884D01*
X127681850Y-87891884D01*
X127610394Y-87891510D01*
X127517969Y-87891026D01*
X127510589Y-87892798D01*
X127510587Y-87892798D01*
X127358602Y-87929286D01*
X127358598Y-87929287D01*
X127351223Y-87931058D01*
X127243009Y-87986911D01*
X127212872Y-88002466D01*
X127155082Y-88016500D01*
X125717948Y-88016500D01*
X125658989Y-88001854D01*
X125536981Y-87937254D01*
X125536982Y-87937254D01*
X125530269Y-87933700D01*
X125512696Y-87929286D01*
X125371322Y-87893775D01*
X125371318Y-87893775D01*
X125363951Y-87891924D01*
X125356352Y-87891884D01*
X125356350Y-87891884D01*
X125284894Y-87891510D01*
X125192469Y-87891026D01*
X125185089Y-87892798D01*
X125185087Y-87892798D01*
X125033102Y-87929286D01*
X125033098Y-87929287D01*
X125025723Y-87931058D01*
X124873339Y-88009709D01*
X124744115Y-88122439D01*
X124645510Y-88262739D01*
X124583218Y-88422509D01*
X124582226Y-88430042D01*
X124582226Y-88430043D01*
X124565435Y-88557589D01*
X124560835Y-88592526D01*
X119284449Y-88592526D01*
X119319578Y-88562523D01*
X119325355Y-88557589D01*
X119425424Y-88418330D01*
X119489385Y-88259220D01*
X119507967Y-88128653D01*
X119512966Y-88093531D01*
X119512966Y-88093527D01*
X119513547Y-88089447D01*
X119513704Y-88074500D01*
X119506376Y-88013943D01*
X119494015Y-87911799D01*
X119494014Y-87911796D01*
X119493102Y-87904258D01*
X119488442Y-87891924D01*
X119435171Y-87750947D01*
X119432487Y-87743844D01*
X119335357Y-87602519D01*
X119329686Y-87597466D01*
X119212993Y-87493496D01*
X119212990Y-87493494D01*
X119207321Y-87488443D01*
X119055769Y-87408200D01*
X119007135Y-87395984D01*
X118960171Y-87384187D01*
X118901772Y-87351078D01*
X117561451Y-86010758D01*
X117527426Y-85948446D01*
X117532490Y-85877631D01*
X117575037Y-85820795D01*
X117622415Y-85798843D01*
X117673897Y-85787052D01*
X117734359Y-85773205D01*
X117734360Y-85773205D01*
X117741759Y-85771510D01*
X117894958Y-85694459D01*
X117900729Y-85689530D01*
X117900732Y-85689528D01*
X118019578Y-85588023D01*
X118025355Y-85583089D01*
X118125424Y-85443830D01*
X118189385Y-85284720D01*
X118213547Y-85114947D01*
X118213704Y-85100000D01*
X118193102Y-84929758D01*
X118187042Y-84913720D01*
X118181676Y-84842926D01*
X118215814Y-84780090D01*
X121396224Y-81599680D01*
X121439963Y-81571921D01*
X121441759Y-81571510D01*
X121594958Y-81494459D01*
X121600729Y-81489530D01*
X121600732Y-81489528D01*
X121719578Y-81388023D01*
X121725355Y-81383089D01*
X121825424Y-81243830D01*
X121889385Y-81084720D01*
X121913547Y-80914947D01*
X121913704Y-80900000D01*
X121893102Y-80729758D01*
X121880624Y-80696734D01*
X121835171Y-80576447D01*
X121832487Y-80569344D01*
X121735357Y-80428019D01*
X121729686Y-80422966D01*
X121612993Y-80318996D01*
X121612990Y-80318994D01*
X121607321Y-80313943D01*
X121599325Y-80309709D01*
X121462481Y-80237254D01*
X121462482Y-80237254D01*
X121455769Y-80233700D01*
X121438196Y-80229286D01*
X121296822Y-80193775D01*
X121296818Y-80193775D01*
X121289451Y-80191924D01*
X121281852Y-80191884D01*
X121281850Y-80191884D01*
X121210394Y-80191510D01*
X121117969Y-80191026D01*
X121110589Y-80192798D01*
X121110587Y-80192798D01*
X120958602Y-80229286D01*
X120958598Y-80229287D01*
X120951223Y-80231058D01*
X120798839Y-80309709D01*
X120669615Y-80422439D01*
X120571010Y-80562739D01*
X120535659Y-80653409D01*
X120507361Y-80696734D01*
X117698595Y-83505500D01*
X117636283Y-83539526D01*
X117565468Y-83534461D01*
X117508632Y-83491914D01*
X117483821Y-83425394D01*
X117483500Y-83416405D01*
X117483500Y-82942749D01*
X117507177Y-82869223D01*
X117520993Y-82849996D01*
X117525424Y-82843830D01*
X117589385Y-82684720D01*
X117613547Y-82514947D01*
X117613704Y-82500000D01*
X117593102Y-82329758D01*
X117532487Y-82169344D01*
X117435357Y-82028019D01*
X117429686Y-82022966D01*
X117312993Y-81918996D01*
X117312990Y-81918994D01*
X117307321Y-81913943D01*
X117155769Y-81833700D01*
X117083714Y-81815601D01*
X116996822Y-81793775D01*
X116996818Y-81793775D01*
X116989451Y-81791924D01*
X116981852Y-81791884D01*
X116981850Y-81791884D01*
X116840948Y-81791146D01*
X116772933Y-81770788D01*
X116726722Y-81716889D01*
X116715608Y-81665148D01*
X116715607Y-73600000D01*
X121286496Y-73600000D01*
X121306458Y-73789928D01*
X121365473Y-73971556D01*
X121460960Y-74136944D01*
X121588747Y-74278866D01*
X121687843Y-74350864D01*
X121737904Y-74387235D01*
X121743248Y-74391118D01*
X121749276Y-74393802D01*
X121749278Y-74393803D01*
X121911681Y-74466109D01*
X121917712Y-74468794D01*
X122011112Y-74488647D01*
X122098056Y-74507128D01*
X122098061Y-74507128D01*
X122104513Y-74508500D01*
X122295487Y-74508500D01*
X122301939Y-74507128D01*
X122301944Y-74507128D01*
X122388888Y-74488647D01*
X122482288Y-74468794D01*
X122488319Y-74466109D01*
X122650722Y-74393803D01*
X122650724Y-74393802D01*
X122656752Y-74391118D01*
X122662091Y-74387239D01*
X122662098Y-74387235D01*
X122668528Y-74382563D01*
X122742587Y-74358500D01*
X125557413Y-74358500D01*
X125631472Y-74382563D01*
X125637902Y-74387235D01*
X125637909Y-74387239D01*
X125643248Y-74391118D01*
X125649276Y-74393802D01*
X125649278Y-74393803D01*
X125811681Y-74466109D01*
X125817712Y-74468794D01*
X125911112Y-74488647D01*
X125998056Y-74507128D01*
X125998061Y-74507128D01*
X126004513Y-74508500D01*
X126195487Y-74508500D01*
X126201939Y-74507128D01*
X126201944Y-74507128D01*
X126288888Y-74488647D01*
X126382288Y-74468794D01*
X126388319Y-74466109D01*
X126550722Y-74393803D01*
X126550724Y-74393802D01*
X126556752Y-74391118D01*
X126562097Y-74387235D01*
X126612157Y-74350864D01*
X126711253Y-74278866D01*
X126839040Y-74136944D01*
X126934527Y-73971556D01*
X126993542Y-73789928D01*
X127013504Y-73600000D01*
X126993542Y-73410072D01*
X126934527Y-73228444D01*
X126839040Y-73063056D01*
X126711253Y-72921134D01*
X126582481Y-72827575D01*
X126562094Y-72812763D01*
X126562093Y-72812762D01*
X126556752Y-72808882D01*
X126550724Y-72806198D01*
X126550722Y-72806197D01*
X126388319Y-72733891D01*
X126388318Y-72733891D01*
X126382288Y-72731206D01*
X126288887Y-72711353D01*
X126201944Y-72692872D01*
X126201939Y-72692872D01*
X126195487Y-72691500D01*
X126004513Y-72691500D01*
X125998061Y-72692872D01*
X125998056Y-72692872D01*
X125911113Y-72711353D01*
X125817712Y-72731206D01*
X125811682Y-72733891D01*
X125811681Y-72733891D01*
X125649278Y-72806197D01*
X125649276Y-72806198D01*
X125643248Y-72808882D01*
X125637909Y-72812761D01*
X125637902Y-72812765D01*
X125631472Y-72817437D01*
X125557413Y-72841500D01*
X122742587Y-72841500D01*
X122668528Y-72817437D01*
X122662098Y-72812765D01*
X122662091Y-72812761D01*
X122656752Y-72808882D01*
X122650724Y-72806198D01*
X122650722Y-72806197D01*
X122488319Y-72733891D01*
X122488318Y-72733891D01*
X122482288Y-72731206D01*
X122388887Y-72711353D01*
X122301944Y-72692872D01*
X122301939Y-72692872D01*
X122295487Y-72691500D01*
X122104513Y-72691500D01*
X122098061Y-72692872D01*
X122098056Y-72692872D01*
X122011113Y-72711353D01*
X121917712Y-72731206D01*
X121911682Y-72733891D01*
X121911681Y-72733891D01*
X121749278Y-72806197D01*
X121749276Y-72806198D01*
X121743248Y-72808882D01*
X121737907Y-72812762D01*
X121737906Y-72812763D01*
X121717519Y-72827575D01*
X121588747Y-72921134D01*
X121460960Y-73063056D01*
X121365473Y-73228444D01*
X121306458Y-73410072D01*
X121286496Y-73600000D01*
X116715607Y-73600000D01*
X116715607Y-71901657D01*
X119272000Y-71901657D01*
X119272301Y-71907805D01*
X119285812Y-72045603D01*
X119288195Y-72057638D01*
X119341767Y-72235076D01*
X119346441Y-72246416D01*
X119433460Y-72410077D01*
X119440249Y-72420294D01*
X119557397Y-72563933D01*
X119566041Y-72572637D01*
X119708856Y-72690784D01*
X119719027Y-72697644D01*
X119882076Y-72785804D01*
X119893381Y-72790556D01*
X120008692Y-72826250D01*
X120022795Y-72826456D01*
X120026000Y-72819701D01*
X120026000Y-72812924D01*
X120534000Y-72812924D01*
X120537973Y-72826455D01*
X120545768Y-72827575D01*
X120653521Y-72795862D01*
X120664889Y-72791269D01*
X120829154Y-72705393D01*
X120839415Y-72698679D01*
X120983873Y-72582532D01*
X120992632Y-72573954D01*
X121111778Y-72431961D01*
X121118708Y-72421841D01*
X121208002Y-72259415D01*
X121212834Y-72248142D01*
X121268880Y-72071462D01*
X121271430Y-72059468D01*
X121287607Y-71915239D01*
X121288000Y-71908215D01*
X121288000Y-71722026D01*
X121308002Y-71653905D01*
X121361658Y-71607412D01*
X121431932Y-71597308D01*
X121441486Y-71599061D01*
X121611494Y-71637062D01*
X121611501Y-71637063D01*
X121616543Y-71638190D01*
X121622088Y-71638500D01*
X121755244Y-71638500D01*
X121890037Y-71623857D01*
X122028927Y-71577115D01*
X122055204Y-71568272D01*
X122055206Y-71568271D01*
X122061675Y-71566094D01*
X122216905Y-71472823D01*
X122221862Y-71468135D01*
X122221865Y-71468133D01*
X122343527Y-71353082D01*
X122343529Y-71353080D01*
X122348485Y-71348393D01*
X122352317Y-71342755D01*
X122352320Y-71342751D01*
X122446442Y-71204255D01*
X122450277Y-71198612D01*
X122517530Y-71030466D01*
X122518644Y-71023738D01*
X122518645Y-71023734D01*
X122545993Y-70858539D01*
X122545993Y-70858536D01*
X122547108Y-70851802D01*
X122542203Y-70758198D01*
X126652892Y-70758198D01*
X126653249Y-70765015D01*
X126653249Y-70765019D01*
X126658151Y-70858539D01*
X126662370Y-70939047D01*
X126664181Y-70945620D01*
X126664181Y-70945623D01*
X126693207Y-71051000D01*
X126710461Y-71113641D01*
X126794922Y-71273836D01*
X126799327Y-71279049D01*
X126799330Y-71279053D01*
X126907406Y-71406943D01*
X126907410Y-71406947D01*
X126911813Y-71412157D01*
X126917237Y-71416304D01*
X126917238Y-71416305D01*
X127050257Y-71518006D01*
X127050261Y-71518009D01*
X127055678Y-71522150D01*
X127138287Y-71560671D01*
X127213631Y-71595805D01*
X127213634Y-71595806D01*
X127219808Y-71598685D01*
X127226456Y-71600171D01*
X127226459Y-71600172D01*
X127322686Y-71621681D01*
X127396543Y-71638190D01*
X127402088Y-71638500D01*
X127535244Y-71638500D01*
X127670037Y-71623857D01*
X127676501Y-71621682D01*
X127676504Y-71621681D01*
X127743716Y-71599061D01*
X127745811Y-71598356D01*
X127816753Y-71595586D01*
X127877932Y-71631609D01*
X127909923Y-71694990D01*
X127912000Y-71717775D01*
X127912000Y-71901657D01*
X127912301Y-71907805D01*
X127925812Y-72045603D01*
X127928195Y-72057638D01*
X127981767Y-72235076D01*
X127986441Y-72246416D01*
X128073460Y-72410077D01*
X128080249Y-72420294D01*
X128197397Y-72563933D01*
X128206041Y-72572637D01*
X128348856Y-72690784D01*
X128359027Y-72697644D01*
X128522076Y-72785804D01*
X128533381Y-72790556D01*
X128648692Y-72826250D01*
X128662795Y-72826456D01*
X128666000Y-72819701D01*
X128666000Y-72812924D01*
X129174000Y-72812924D01*
X129177973Y-72826455D01*
X129185768Y-72827575D01*
X129293521Y-72795862D01*
X129304889Y-72791269D01*
X129469154Y-72705393D01*
X129479415Y-72698679D01*
X129623873Y-72582532D01*
X129632632Y-72573954D01*
X129751778Y-72431961D01*
X129758708Y-72421841D01*
X129848002Y-72259415D01*
X129852834Y-72248142D01*
X129908880Y-72071462D01*
X129911430Y-72059468D01*
X129927607Y-71915239D01*
X129928000Y-71908215D01*
X129928000Y-71577115D01*
X129923525Y-71561876D01*
X129922135Y-71560671D01*
X129914452Y-71559000D01*
X129192115Y-71559000D01*
X129176876Y-71563475D01*
X129175671Y-71564865D01*
X129174000Y-71572548D01*
X129174000Y-72812924D01*
X128666000Y-72812924D01*
X128666000Y-71032885D01*
X129174000Y-71032885D01*
X129178475Y-71048124D01*
X129179865Y-71049329D01*
X129187548Y-71051000D01*
X129909885Y-71051000D01*
X129925124Y-71046525D01*
X129926329Y-71045135D01*
X129928000Y-71037452D01*
X129928000Y-70708343D01*
X129927699Y-70702195D01*
X129914188Y-70564397D01*
X129911805Y-70552362D01*
X129858233Y-70374924D01*
X129853559Y-70363584D01*
X129766540Y-70199923D01*
X129759751Y-70189706D01*
X129642603Y-70046067D01*
X129633959Y-70037363D01*
X129491144Y-69919216D01*
X129480973Y-69912356D01*
X129317924Y-69824196D01*
X129306619Y-69819444D01*
X129191308Y-69783750D01*
X129177205Y-69783544D01*
X129174000Y-69790299D01*
X129174000Y-71032885D01*
X128666000Y-71032885D01*
X128666000Y-69797076D01*
X128662027Y-69783545D01*
X128654232Y-69782425D01*
X128546479Y-69814138D01*
X128535111Y-69818731D01*
X128370846Y-69904607D01*
X128360585Y-69911321D01*
X128216127Y-70027468D01*
X128207366Y-70036047D01*
X128147664Y-70107197D01*
X128088555Y-70146523D01*
X128017567Y-70147649D01*
X127974614Y-70126301D01*
X127929743Y-70091994D01*
X127929739Y-70091991D01*
X127924322Y-70087850D01*
X127813228Y-70036046D01*
X127766369Y-70014195D01*
X127766366Y-70014194D01*
X127760192Y-70011315D01*
X127753544Y-70009829D01*
X127753541Y-70009828D01*
X127588494Y-69972936D01*
X127588495Y-69972936D01*
X127583457Y-69971810D01*
X127577912Y-69971500D01*
X127444756Y-69971500D01*
X127309963Y-69986143D01*
X127226609Y-70014195D01*
X127144796Y-70041728D01*
X127144794Y-70041729D01*
X127138325Y-70043906D01*
X126983095Y-70137177D01*
X126978138Y-70141865D01*
X126978135Y-70141867D01*
X126923329Y-70193695D01*
X126851515Y-70261607D01*
X126847683Y-70267245D01*
X126847680Y-70267249D01*
X126796740Y-70342205D01*
X126749723Y-70411388D01*
X126682470Y-70579534D01*
X126681356Y-70586262D01*
X126681355Y-70586266D01*
X126654007Y-70751461D01*
X126652892Y-70758198D01*
X122542203Y-70758198D01*
X122537987Y-70677766D01*
X122537630Y-70670953D01*
X122514304Y-70586266D01*
X122491352Y-70502941D01*
X122489539Y-70496359D01*
X122405078Y-70336164D01*
X122400673Y-70330951D01*
X122400670Y-70330947D01*
X122292594Y-70203057D01*
X122292590Y-70203053D01*
X122288187Y-70197843D01*
X122282762Y-70193695D01*
X122149743Y-70091994D01*
X122149739Y-70091991D01*
X122144322Y-70087850D01*
X122033228Y-70036046D01*
X121986369Y-70014195D01*
X121986366Y-70014194D01*
X121980192Y-70011315D01*
X121973544Y-70009829D01*
X121973541Y-70009828D01*
X121808494Y-69972936D01*
X121808495Y-69972936D01*
X121803457Y-69971810D01*
X121797912Y-69971500D01*
X121664756Y-69971500D01*
X121529963Y-69986143D01*
X121446609Y-70014195D01*
X121364796Y-70041728D01*
X121364794Y-70041729D01*
X121358325Y-70043906D01*
X121211962Y-70131849D01*
X121143273Y-70149788D01*
X121075786Y-70127741D01*
X121049428Y-70103481D01*
X121002603Y-70046067D01*
X120993959Y-70037363D01*
X120851144Y-69919216D01*
X120840973Y-69912356D01*
X120677924Y-69824196D01*
X120666619Y-69819444D01*
X120551308Y-69783750D01*
X120537205Y-69783544D01*
X120534000Y-69790299D01*
X120534000Y-72812924D01*
X120026000Y-72812924D01*
X120026000Y-71577115D01*
X120021525Y-71561876D01*
X120020135Y-71560671D01*
X120012452Y-71559000D01*
X119290115Y-71559000D01*
X119274876Y-71563475D01*
X119273671Y-71564865D01*
X119272000Y-71572548D01*
X119272000Y-71901657D01*
X116715607Y-71901657D01*
X116715607Y-71032885D01*
X119272000Y-71032885D01*
X119276475Y-71048124D01*
X119277865Y-71049329D01*
X119285548Y-71051000D01*
X120007885Y-71051000D01*
X120023124Y-71046525D01*
X120024329Y-71045135D01*
X120026000Y-71037452D01*
X120026000Y-69797076D01*
X120022027Y-69783545D01*
X120014232Y-69782425D01*
X119906479Y-69814138D01*
X119895111Y-69818731D01*
X119730846Y-69904607D01*
X119720585Y-69911321D01*
X119576127Y-70027468D01*
X119567368Y-70036046D01*
X119448222Y-70178039D01*
X119441292Y-70188159D01*
X119351998Y-70350585D01*
X119347166Y-70361858D01*
X119291120Y-70538538D01*
X119288570Y-70550532D01*
X119272393Y-70694761D01*
X119272000Y-70701785D01*
X119272000Y-71032885D01*
X116715607Y-71032885D01*
X116715607Y-67471657D01*
X119272000Y-67471657D01*
X119272301Y-67477805D01*
X119285812Y-67615603D01*
X119288195Y-67627638D01*
X119341767Y-67805076D01*
X119346441Y-67816416D01*
X119433460Y-67980077D01*
X119440249Y-67990294D01*
X119557397Y-68133933D01*
X119566041Y-68142637D01*
X119708856Y-68260784D01*
X119719027Y-68267644D01*
X119882076Y-68355804D01*
X119893381Y-68360556D01*
X120008692Y-68396250D01*
X120022795Y-68396456D01*
X120026000Y-68389701D01*
X120026000Y-68382924D01*
X120534000Y-68382924D01*
X120537973Y-68396455D01*
X120545768Y-68397575D01*
X120653521Y-68365862D01*
X120664889Y-68361269D01*
X120829154Y-68275393D01*
X120839415Y-68268679D01*
X120983873Y-68152532D01*
X120992632Y-68143954D01*
X121111778Y-68001961D01*
X121118708Y-67991841D01*
X121208002Y-67829415D01*
X121212834Y-67818142D01*
X121268880Y-67641462D01*
X121271430Y-67629468D01*
X121287607Y-67485239D01*
X121288000Y-67478215D01*
X121288000Y-67471657D01*
X127912000Y-67471657D01*
X127912301Y-67477805D01*
X127925812Y-67615603D01*
X127928195Y-67627638D01*
X127981767Y-67805076D01*
X127986441Y-67816416D01*
X128073460Y-67980077D01*
X128080249Y-67990294D01*
X128197397Y-68133933D01*
X128206041Y-68142637D01*
X128348856Y-68260784D01*
X128359027Y-68267644D01*
X128522076Y-68355804D01*
X128533381Y-68360556D01*
X128648692Y-68396250D01*
X128662795Y-68396456D01*
X128666000Y-68389701D01*
X128666000Y-68382924D01*
X129174000Y-68382924D01*
X129177973Y-68396455D01*
X129185768Y-68397575D01*
X129293521Y-68365862D01*
X129304889Y-68361269D01*
X129469154Y-68275393D01*
X129479415Y-68268679D01*
X129623873Y-68152532D01*
X129632632Y-68143954D01*
X129751778Y-68001961D01*
X129758708Y-67991841D01*
X129848002Y-67829415D01*
X129852834Y-67818142D01*
X129908880Y-67641462D01*
X129911430Y-67629468D01*
X129927607Y-67485239D01*
X129928000Y-67478215D01*
X129928000Y-67397115D01*
X129923525Y-67381876D01*
X129922135Y-67380671D01*
X129914452Y-67379000D01*
X129192115Y-67379000D01*
X129176876Y-67383475D01*
X129175671Y-67384865D01*
X129174000Y-67392548D01*
X129174000Y-68382924D01*
X128666000Y-68382924D01*
X128666000Y-67397115D01*
X128661525Y-67381876D01*
X128660135Y-67380671D01*
X128652452Y-67379000D01*
X127930115Y-67379000D01*
X127914876Y-67383475D01*
X127913671Y-67384865D01*
X127912000Y-67392548D01*
X127912000Y-67471657D01*
X121288000Y-67471657D01*
X121288000Y-67397115D01*
X121283525Y-67381876D01*
X121282135Y-67380671D01*
X121274452Y-67379000D01*
X120552115Y-67379000D01*
X120536876Y-67383475D01*
X120535671Y-67384865D01*
X120534000Y-67392548D01*
X120534000Y-68382924D01*
X120026000Y-68382924D01*
X120026000Y-67397115D01*
X120021525Y-67381876D01*
X120020135Y-67380671D01*
X120012452Y-67379000D01*
X119290115Y-67379000D01*
X119274876Y-67383475D01*
X119273671Y-67384865D01*
X119272000Y-67392548D01*
X119272000Y-67471657D01*
X116715607Y-67471657D01*
X116715607Y-66852885D01*
X119272000Y-66852885D01*
X119276475Y-66868124D01*
X119277865Y-66869329D01*
X119285548Y-66871000D01*
X120007885Y-66871000D01*
X120023124Y-66866525D01*
X120024329Y-66865135D01*
X120026000Y-66857452D01*
X120026000Y-66852885D01*
X120534000Y-66852885D01*
X120538475Y-66868124D01*
X120539865Y-66869329D01*
X120547548Y-66871000D01*
X121269885Y-66871000D01*
X121285124Y-66866525D01*
X121286329Y-66865135D01*
X121288000Y-66857452D01*
X121288000Y-66852885D01*
X127912000Y-66852885D01*
X127916475Y-66868124D01*
X127917865Y-66869329D01*
X127925548Y-66871000D01*
X128647885Y-66871000D01*
X128663124Y-66866525D01*
X128664329Y-66865135D01*
X128666000Y-66857452D01*
X128666000Y-66852885D01*
X129174000Y-66852885D01*
X129178475Y-66868124D01*
X129179865Y-66869329D01*
X129187548Y-66871000D01*
X129909885Y-66871000D01*
X129925124Y-66866525D01*
X129926329Y-66865135D01*
X129928000Y-66857452D01*
X129928000Y-66778343D01*
X129927699Y-66772195D01*
X129914188Y-66634397D01*
X129911805Y-66622362D01*
X129858233Y-66444924D01*
X129853559Y-66433584D01*
X129766540Y-66269923D01*
X129759751Y-66259706D01*
X129642603Y-66116067D01*
X129633959Y-66107363D01*
X129491144Y-65989216D01*
X129480973Y-65982356D01*
X129317924Y-65894196D01*
X129306619Y-65889444D01*
X129191308Y-65853750D01*
X129177205Y-65853544D01*
X129174000Y-65860299D01*
X129174000Y-66852885D01*
X128666000Y-66852885D01*
X128666000Y-65867076D01*
X128662027Y-65853545D01*
X128654232Y-65852425D01*
X128546479Y-65884138D01*
X128535111Y-65888731D01*
X128370846Y-65974607D01*
X128360585Y-65981321D01*
X128216127Y-66097468D01*
X128207368Y-66106046D01*
X128088222Y-66248039D01*
X128081292Y-66258159D01*
X127991998Y-66420585D01*
X127987166Y-66431858D01*
X127931120Y-66608538D01*
X127928570Y-66620532D01*
X127912393Y-66764761D01*
X127912000Y-66771785D01*
X127912000Y-66852885D01*
X121288000Y-66852885D01*
X121288000Y-66778343D01*
X121287699Y-66772195D01*
X121274188Y-66634397D01*
X121271805Y-66622362D01*
X121218233Y-66444924D01*
X121213559Y-66433584D01*
X121126540Y-66269923D01*
X121119751Y-66259706D01*
X121002603Y-66116067D01*
X120993959Y-66107363D01*
X120851144Y-65989216D01*
X120840973Y-65982356D01*
X120677924Y-65894196D01*
X120666619Y-65889444D01*
X120551308Y-65853750D01*
X120537205Y-65853544D01*
X120534000Y-65860299D01*
X120534000Y-66852885D01*
X120026000Y-66852885D01*
X120026000Y-65867076D01*
X120022027Y-65853545D01*
X120014232Y-65852425D01*
X119906479Y-65884138D01*
X119895111Y-65888731D01*
X119730846Y-65974607D01*
X119720585Y-65981321D01*
X119576127Y-66097468D01*
X119567368Y-66106046D01*
X119448222Y-66248039D01*
X119441292Y-66258159D01*
X119351998Y-66420585D01*
X119347166Y-66431858D01*
X119291120Y-66608538D01*
X119288570Y-66620532D01*
X119272393Y-66764761D01*
X119272000Y-66771785D01*
X119272000Y-66852885D01*
X116715607Y-66852885D01*
X116715607Y-65353250D01*
X116717353Y-65332345D01*
X116719877Y-65317344D01*
X116719877Y-65317341D01*
X116720683Y-65312552D01*
X116720836Y-65300000D01*
X116720146Y-65295182D01*
X116719830Y-65290329D01*
X116720117Y-65290310D01*
X116719714Y-65263551D01*
X116720092Y-65260202D01*
X116726341Y-65204736D01*
X116732620Y-65177231D01*
X116759593Y-65100147D01*
X116771835Y-65074726D01*
X116815282Y-65005580D01*
X116832874Y-64983521D01*
X116890623Y-64925772D01*
X116912677Y-64908184D01*
X116981832Y-64864731D01*
X117007248Y-64852492D01*
X117084336Y-64825518D01*
X117111843Y-64819239D01*
X117128283Y-64817387D01*
X117167376Y-64812983D01*
X117183025Y-64812200D01*
X117191956Y-64812309D01*
X117200827Y-64813691D01*
X117209730Y-64812527D01*
X117209736Y-64812527D01*
X117232397Y-64809564D01*
X117248733Y-64808500D01*
X132143530Y-64808500D01*
X132162915Y-64810000D01*
G37*
%TD.AperFunction*%
%TD*%
M02*
