%TF.GenerationSoftware,KiCad,Pcbnew,(6.0.8-1)-1*%
%TF.CreationDate,2022-11-12T20:26:07+08:00*%
%TF.ProjectId,RP-Link,52502d4c-696e-46b2-9e6b-696361645f70,rev?*%
%TF.SameCoordinates,Original*%
%TF.FileFunction,Legend,Bot*%
%TF.FilePolarity,Positive*%
%FSLAX46Y46*%
G04 Gerber Fmt 4.6, Leading zero omitted, Abs format (unit mm)*
G04 Created by KiCad (PCBNEW (6.0.8-1)-1) date 2022-11-12 20:26:07*
%MOMM*%
%LPD*%
G01*
G04 APERTURE LIST*
%ADD10C,0.300000*%
G04 APERTURE END LIST*
D10*
X120478571Y-90793705D02*
X119764285Y-90382991D01*
X120478571Y-89936562D02*
X118978571Y-90124062D01*
X118978571Y-90695491D01*
X119050000Y-90829419D01*
X119121428Y-90891919D01*
X119264285Y-90945491D01*
X119478571Y-90918705D01*
X119621428Y-90829419D01*
X119692857Y-90749062D01*
X119764285Y-90597276D01*
X119764285Y-90025848D01*
X120478571Y-91436562D02*
X118978571Y-91624062D01*
X118978571Y-92195491D01*
X119050000Y-92329419D01*
X119121428Y-92391919D01*
X119264285Y-92445491D01*
X119478571Y-92418705D01*
X119621428Y-92329419D01*
X119692857Y-92249062D01*
X119764285Y-92097276D01*
X119764285Y-91525848D01*
X119907142Y-93007991D02*
X119907142Y-94150848D01*
X120478571Y-95507991D02*
X120478571Y-94793705D01*
X118978571Y-94981205D01*
X120478571Y-96007991D02*
X119478571Y-96132991D01*
X118978571Y-96195491D02*
X119050000Y-96115133D01*
X119121428Y-96177633D01*
X119050000Y-96257991D01*
X118978571Y-96195491D01*
X119121428Y-96177633D01*
X119478571Y-96847276D02*
X120478571Y-96722276D01*
X119621428Y-96829419D02*
X119550000Y-96909776D01*
X119478571Y-97061562D01*
X119478571Y-97275848D01*
X119550000Y-97409776D01*
X119692857Y-97463348D01*
X120478571Y-97365133D01*
X120478571Y-98079419D02*
X118978571Y-98266919D01*
X119907142Y-98293705D02*
X120478571Y-98650848D01*
X119478571Y-98775848D02*
X120050000Y-98132991D01*
M02*
