%TF.GenerationSoftware,KiCad,Pcbnew,(6.0.8-1)-1*%
%TF.CreationDate,2022-11-02T17:39:45+08:00*%
%TF.ProjectId,RP-Link,52502d4c-696e-46b2-9e6b-696361645f70,rev?*%
%TF.SameCoordinates,Original*%
%TF.FileFunction,Legend,Top*%
%TF.FilePolarity,Positive*%
%FSLAX46Y46*%
G04 Gerber Fmt 4.6, Leading zero omitted, Abs format (unit mm)*
G04 Created by KiCad (PCBNEW (6.0.8-1)-1) date 2022-11-02 17:39:45*
%MOMM*%
%LPD*%
G01*
G04 APERTURE LIST*
%ADD10C,0.150000*%
%ADD11C,0.120000*%
%ADD12C,0.155000*%
G04 APERTURE END LIST*
D10*
%TO.C,R2*%
X131102380Y-67566666D02*
X130626190Y-67900000D01*
X131102380Y-68138095D02*
X130102380Y-68138095D01*
X130102380Y-67757142D01*
X130150000Y-67661904D01*
X130197619Y-67614285D01*
X130292857Y-67566666D01*
X130435714Y-67566666D01*
X130530952Y-67614285D01*
X130578571Y-67661904D01*
X130626190Y-67757142D01*
X130626190Y-68138095D01*
X130197619Y-67185714D02*
X130150000Y-67138095D01*
X130102380Y-67042857D01*
X130102380Y-66804761D01*
X130150000Y-66709523D01*
X130197619Y-66661904D01*
X130292857Y-66614285D01*
X130388095Y-66614285D01*
X130530952Y-66661904D01*
X131102380Y-67233333D01*
X131102380Y-66614285D01*
%TO.C,R5*%
X119033333Y-97952380D02*
X118700000Y-97476190D01*
X118461904Y-97952380D02*
X118461904Y-96952380D01*
X118842857Y-96952380D01*
X118938095Y-97000000D01*
X118985714Y-97047619D01*
X119033333Y-97142857D01*
X119033333Y-97285714D01*
X118985714Y-97380952D01*
X118938095Y-97428571D01*
X118842857Y-97476190D01*
X118461904Y-97476190D01*
X119938095Y-96952380D02*
X119461904Y-96952380D01*
X119414285Y-97428571D01*
X119461904Y-97380952D01*
X119557142Y-97333333D01*
X119795238Y-97333333D01*
X119890476Y-97380952D01*
X119938095Y-97428571D01*
X119985714Y-97523809D01*
X119985714Y-97761904D01*
X119938095Y-97857142D01*
X119890476Y-97904761D01*
X119795238Y-97952380D01*
X119557142Y-97952380D01*
X119461904Y-97904761D01*
X119414285Y-97857142D01*
%TO.C,Y1*%
X121223809Y-99576190D02*
X121223809Y-100052380D01*
X120890476Y-99052380D02*
X121223809Y-99576190D01*
X121557142Y-99052380D01*
X122414285Y-100052380D02*
X121842857Y-100052380D01*
X122128571Y-100052380D02*
X122128571Y-99052380D01*
X122033333Y-99195238D01*
X121938095Y-99290476D01*
X121842857Y-99338095D01*
%TO.C,U1*%
X119652380Y-85161904D02*
X120461904Y-85161904D01*
X120557142Y-85114285D01*
X120604761Y-85066666D01*
X120652380Y-84971428D01*
X120652380Y-84780952D01*
X120604761Y-84685714D01*
X120557142Y-84638095D01*
X120461904Y-84590476D01*
X119652380Y-84590476D01*
X120652380Y-83590476D02*
X120652380Y-84161904D01*
X120652380Y-83876190D02*
X119652380Y-83876190D01*
X119795238Y-83971428D01*
X119890476Y-84066666D01*
X119938095Y-84161904D01*
%TO.C,C12*%
X117957142Y-96387142D02*
X117909523Y-96434761D01*
X117766666Y-96482380D01*
X117671428Y-96482380D01*
X117528571Y-96434761D01*
X117433333Y-96339523D01*
X117385714Y-96244285D01*
X117338095Y-96053809D01*
X117338095Y-95910952D01*
X117385714Y-95720476D01*
X117433333Y-95625238D01*
X117528571Y-95530000D01*
X117671428Y-95482380D01*
X117766666Y-95482380D01*
X117909523Y-95530000D01*
X117957142Y-95577619D01*
X118909523Y-96482380D02*
X118338095Y-96482380D01*
X118623809Y-96482380D02*
X118623809Y-95482380D01*
X118528571Y-95625238D01*
X118433333Y-95720476D01*
X118338095Y-95768095D01*
X119290476Y-95577619D02*
X119338095Y-95530000D01*
X119433333Y-95482380D01*
X119671428Y-95482380D01*
X119766666Y-95530000D01*
X119814285Y-95577619D01*
X119861904Y-95672857D01*
X119861904Y-95768095D01*
X119814285Y-95910952D01*
X119242857Y-96482380D01*
X119861904Y-96482380D01*
%TO.C,C4*%
X130533333Y-83757142D02*
X130485714Y-83804761D01*
X130342857Y-83852380D01*
X130247619Y-83852380D01*
X130104761Y-83804761D01*
X130009523Y-83709523D01*
X129961904Y-83614285D01*
X129914285Y-83423809D01*
X129914285Y-83280952D01*
X129961904Y-83090476D01*
X130009523Y-82995238D01*
X130104761Y-82900000D01*
X130247619Y-82852380D01*
X130342857Y-82852380D01*
X130485714Y-82900000D01*
X130533333Y-82947619D01*
X131390476Y-83185714D02*
X131390476Y-83852380D01*
X131152380Y-82804761D02*
X130914285Y-83519047D01*
X131533333Y-83519047D01*
%TO.C,R3*%
X118902380Y-67366666D02*
X118426190Y-67700000D01*
X118902380Y-67938095D02*
X117902380Y-67938095D01*
X117902380Y-67557142D01*
X117950000Y-67461904D01*
X117997619Y-67414285D01*
X118092857Y-67366666D01*
X118235714Y-67366666D01*
X118330952Y-67414285D01*
X118378571Y-67461904D01*
X118426190Y-67557142D01*
X118426190Y-67938095D01*
X117902380Y-67033333D02*
X117902380Y-66414285D01*
X118283333Y-66747619D01*
X118283333Y-66604761D01*
X118330952Y-66509523D01*
X118378571Y-66461904D01*
X118473809Y-66414285D01*
X118711904Y-66414285D01*
X118807142Y-66461904D01*
X118854761Y-66509523D01*
X118902380Y-66604761D01*
X118902380Y-66890476D01*
X118854761Y-66985714D01*
X118807142Y-67033333D01*
%TO.C,U2*%
X126552380Y-79361904D02*
X127361904Y-79361904D01*
X127457142Y-79314285D01*
X127504761Y-79266666D01*
X127552380Y-79171428D01*
X127552380Y-78980952D01*
X127504761Y-78885714D01*
X127457142Y-78838095D01*
X127361904Y-78790476D01*
X126552380Y-78790476D01*
X126647619Y-78361904D02*
X126600000Y-78314285D01*
X126552380Y-78219047D01*
X126552380Y-77980952D01*
X126600000Y-77885714D01*
X126647619Y-77838095D01*
X126742857Y-77790476D01*
X126838095Y-77790476D01*
X126980952Y-77838095D01*
X127552380Y-78409523D01*
X127552380Y-77790476D01*
%TO.C,R1*%
X123082380Y-78586666D02*
X122606190Y-78920000D01*
X123082380Y-79158095D02*
X122082380Y-79158095D01*
X122082380Y-78777142D01*
X122130000Y-78681904D01*
X122177619Y-78634285D01*
X122272857Y-78586666D01*
X122415714Y-78586666D01*
X122510952Y-78634285D01*
X122558571Y-78681904D01*
X122606190Y-78777142D01*
X122606190Y-79158095D01*
X123082380Y-77634285D02*
X123082380Y-78205714D01*
X123082380Y-77920000D02*
X122082380Y-77920000D01*
X122225238Y-78015238D01*
X122320476Y-78110476D01*
X122368095Y-78205714D01*
%TO.C,C9*%
X124633333Y-102757142D02*
X124585714Y-102804761D01*
X124442857Y-102852380D01*
X124347619Y-102852380D01*
X124204761Y-102804761D01*
X124109523Y-102709523D01*
X124061904Y-102614285D01*
X124014285Y-102423809D01*
X124014285Y-102280952D01*
X124061904Y-102090476D01*
X124109523Y-101995238D01*
X124204761Y-101900000D01*
X124347619Y-101852380D01*
X124442857Y-101852380D01*
X124585714Y-101900000D01*
X124633333Y-101947619D01*
X125109523Y-102852380D02*
X125300000Y-102852380D01*
X125395238Y-102804761D01*
X125442857Y-102757142D01*
X125538095Y-102614285D01*
X125585714Y-102423809D01*
X125585714Y-102042857D01*
X125538095Y-101947619D01*
X125490476Y-101900000D01*
X125395238Y-101852380D01*
X125204761Y-101852380D01*
X125109523Y-101900000D01*
X125061904Y-101947619D01*
X125014285Y-102042857D01*
X125014285Y-102280952D01*
X125061904Y-102376190D01*
X125109523Y-102423809D01*
X125204761Y-102471428D01*
X125395238Y-102471428D01*
X125490476Y-102423809D01*
X125538095Y-102376190D01*
X125585714Y-102280952D01*
%TO.C,C2*%
X121633333Y-105157142D02*
X121585714Y-105204761D01*
X121442857Y-105252380D01*
X121347619Y-105252380D01*
X121204761Y-105204761D01*
X121109523Y-105109523D01*
X121061904Y-105014285D01*
X121014285Y-104823809D01*
X121014285Y-104680952D01*
X121061904Y-104490476D01*
X121109523Y-104395238D01*
X121204761Y-104300000D01*
X121347619Y-104252380D01*
X121442857Y-104252380D01*
X121585714Y-104300000D01*
X121633333Y-104347619D01*
X122014285Y-104347619D02*
X122061904Y-104300000D01*
X122157142Y-104252380D01*
X122395238Y-104252380D01*
X122490476Y-104300000D01*
X122538095Y-104347619D01*
X122585714Y-104442857D01*
X122585714Y-104538095D01*
X122538095Y-104680952D01*
X121966666Y-105252380D01*
X122585714Y-105252380D01*
%TO.C,C10*%
X130779523Y-91527142D02*
X130731904Y-91574761D01*
X130589047Y-91622380D01*
X130493809Y-91622380D01*
X130350952Y-91574761D01*
X130255714Y-91479523D01*
X130208095Y-91384285D01*
X130160476Y-91193809D01*
X130160476Y-91050952D01*
X130208095Y-90860476D01*
X130255714Y-90765238D01*
X130350952Y-90670000D01*
X130493809Y-90622380D01*
X130589047Y-90622380D01*
X130731904Y-90670000D01*
X130779523Y-90717619D01*
X131731904Y-91622380D02*
X131160476Y-91622380D01*
X131446190Y-91622380D02*
X131446190Y-90622380D01*
X131350952Y-90765238D01*
X131255714Y-90860476D01*
X131160476Y-90908095D01*
X132350952Y-90622380D02*
X132446190Y-90622380D01*
X132541428Y-90670000D01*
X132589047Y-90717619D01*
X132636666Y-90812857D01*
X132684285Y-91003333D01*
X132684285Y-91241428D01*
X132636666Y-91431904D01*
X132589047Y-91527142D01*
X132541428Y-91574761D01*
X132446190Y-91622380D01*
X132350952Y-91622380D01*
X132255714Y-91574761D01*
X132208095Y-91527142D01*
X132160476Y-91431904D01*
X132112857Y-91241428D01*
X132112857Y-91003333D01*
X132160476Y-90812857D01*
X132208095Y-90717619D01*
X132255714Y-90670000D01*
X132350952Y-90622380D01*
%TO.C,C14*%
X127757142Y-88357142D02*
X127709523Y-88404761D01*
X127566666Y-88452380D01*
X127471428Y-88452380D01*
X127328571Y-88404761D01*
X127233333Y-88309523D01*
X127185714Y-88214285D01*
X127138095Y-88023809D01*
X127138095Y-87880952D01*
X127185714Y-87690476D01*
X127233333Y-87595238D01*
X127328571Y-87500000D01*
X127471428Y-87452380D01*
X127566666Y-87452380D01*
X127709523Y-87500000D01*
X127757142Y-87547619D01*
X128709523Y-88452380D02*
X128138095Y-88452380D01*
X128423809Y-88452380D02*
X128423809Y-87452380D01*
X128328571Y-87595238D01*
X128233333Y-87690476D01*
X128138095Y-87738095D01*
X129566666Y-87785714D02*
X129566666Y-88452380D01*
X129328571Y-87404761D02*
X129090476Y-88119047D01*
X129709523Y-88119047D01*
%TO.C,C1*%
X124633333Y-104157142D02*
X124585714Y-104204761D01*
X124442857Y-104252380D01*
X124347619Y-104252380D01*
X124204761Y-104204761D01*
X124109523Y-104109523D01*
X124061904Y-104014285D01*
X124014285Y-103823809D01*
X124014285Y-103680952D01*
X124061904Y-103490476D01*
X124109523Y-103395238D01*
X124204761Y-103300000D01*
X124347619Y-103252380D01*
X124442857Y-103252380D01*
X124585714Y-103300000D01*
X124633333Y-103347619D01*
X125585714Y-104252380D02*
X125014285Y-104252380D01*
X125300000Y-104252380D02*
X125300000Y-103252380D01*
X125204761Y-103395238D01*
X125109523Y-103490476D01*
X125014285Y-103538095D01*
%TO.C,C13*%
X117957142Y-92187142D02*
X117909523Y-92234761D01*
X117766666Y-92282380D01*
X117671428Y-92282380D01*
X117528571Y-92234761D01*
X117433333Y-92139523D01*
X117385714Y-92044285D01*
X117338095Y-91853809D01*
X117338095Y-91710952D01*
X117385714Y-91520476D01*
X117433333Y-91425238D01*
X117528571Y-91330000D01*
X117671428Y-91282380D01*
X117766666Y-91282380D01*
X117909523Y-91330000D01*
X117957142Y-91377619D01*
X118909523Y-92282380D02*
X118338095Y-92282380D01*
X118623809Y-92282380D02*
X118623809Y-91282380D01*
X118528571Y-91425238D01*
X118433333Y-91520476D01*
X118338095Y-91568095D01*
X119242857Y-91282380D02*
X119861904Y-91282380D01*
X119528571Y-91663333D01*
X119671428Y-91663333D01*
X119766666Y-91710952D01*
X119814285Y-91758571D01*
X119861904Y-91853809D01*
X119861904Y-92091904D01*
X119814285Y-92187142D01*
X119766666Y-92234761D01*
X119671428Y-92282380D01*
X119385714Y-92282380D01*
X119290476Y-92234761D01*
X119242857Y-92187142D01*
%TO.C,J2*%
X130266666Y-108852380D02*
X130266666Y-109566666D01*
X130219047Y-109709523D01*
X130123809Y-109804761D01*
X129980952Y-109852380D01*
X129885714Y-109852380D01*
X130695238Y-108947619D02*
X130742857Y-108900000D01*
X130838095Y-108852380D01*
X131076190Y-108852380D01*
X131171428Y-108900000D01*
X131219047Y-108947619D01*
X131266666Y-109042857D01*
X131266666Y-109138095D01*
X131219047Y-109280952D01*
X130647619Y-109852380D01*
X131266666Y-109852380D01*
%TO.C,C7*%
X124433333Y-83357142D02*
X124385714Y-83404761D01*
X124242857Y-83452380D01*
X124147619Y-83452380D01*
X124004761Y-83404761D01*
X123909523Y-83309523D01*
X123861904Y-83214285D01*
X123814285Y-83023809D01*
X123814285Y-82880952D01*
X123861904Y-82690476D01*
X123909523Y-82595238D01*
X124004761Y-82500000D01*
X124147619Y-82452380D01*
X124242857Y-82452380D01*
X124385714Y-82500000D01*
X124433333Y-82547619D01*
X124766666Y-82452380D02*
X125433333Y-82452380D01*
X125004761Y-83452380D01*
%TO.C,C15*%
X130757142Y-86527142D02*
X130709523Y-86574761D01*
X130566666Y-86622380D01*
X130471428Y-86622380D01*
X130328571Y-86574761D01*
X130233333Y-86479523D01*
X130185714Y-86384285D01*
X130138095Y-86193809D01*
X130138095Y-86050952D01*
X130185714Y-85860476D01*
X130233333Y-85765238D01*
X130328571Y-85670000D01*
X130471428Y-85622380D01*
X130566666Y-85622380D01*
X130709523Y-85670000D01*
X130757142Y-85717619D01*
X131709523Y-86622380D02*
X131138095Y-86622380D01*
X131423809Y-86622380D02*
X131423809Y-85622380D01*
X131328571Y-85765238D01*
X131233333Y-85860476D01*
X131138095Y-85908095D01*
X132614285Y-85622380D02*
X132138095Y-85622380D01*
X132090476Y-86098571D01*
X132138095Y-86050952D01*
X132233333Y-86003333D01*
X132471428Y-86003333D01*
X132566666Y-86050952D01*
X132614285Y-86098571D01*
X132661904Y-86193809D01*
X132661904Y-86431904D01*
X132614285Y-86527142D01*
X132566666Y-86574761D01*
X132471428Y-86622380D01*
X132233333Y-86622380D01*
X132138095Y-86574761D01*
X132090476Y-86527142D01*
%TO.C,C6*%
X126633333Y-102757142D02*
X126585714Y-102804761D01*
X126442857Y-102852380D01*
X126347619Y-102852380D01*
X126204761Y-102804761D01*
X126109523Y-102709523D01*
X126061904Y-102614285D01*
X126014285Y-102423809D01*
X126014285Y-102280952D01*
X126061904Y-102090476D01*
X126109523Y-101995238D01*
X126204761Y-101900000D01*
X126347619Y-101852380D01*
X126442857Y-101852380D01*
X126585714Y-101900000D01*
X126633333Y-101947619D01*
X127490476Y-101852380D02*
X127300000Y-101852380D01*
X127204761Y-101900000D01*
X127157142Y-101947619D01*
X127061904Y-102090476D01*
X127014285Y-102280952D01*
X127014285Y-102661904D01*
X127061904Y-102757142D01*
X127109523Y-102804761D01*
X127204761Y-102852380D01*
X127395238Y-102852380D01*
X127490476Y-102804761D01*
X127538095Y-102757142D01*
X127585714Y-102661904D01*
X127585714Y-102423809D01*
X127538095Y-102328571D01*
X127490476Y-102280952D01*
X127395238Y-102233333D01*
X127204761Y-102233333D01*
X127109523Y-102280952D01*
X127061904Y-102328571D01*
X127014285Y-102423809D01*
%TO.C,C11*%
X130757142Y-95757142D02*
X130709523Y-95804761D01*
X130566666Y-95852380D01*
X130471428Y-95852380D01*
X130328571Y-95804761D01*
X130233333Y-95709523D01*
X130185714Y-95614285D01*
X130138095Y-95423809D01*
X130138095Y-95280952D01*
X130185714Y-95090476D01*
X130233333Y-94995238D01*
X130328571Y-94900000D01*
X130471428Y-94852380D01*
X130566666Y-94852380D01*
X130709523Y-94900000D01*
X130757142Y-94947619D01*
X131709523Y-95852380D02*
X131138095Y-95852380D01*
X131423809Y-95852380D02*
X131423809Y-94852380D01*
X131328571Y-94995238D01*
X131233333Y-95090476D01*
X131138095Y-95138095D01*
X132661904Y-95852380D02*
X132090476Y-95852380D01*
X132376190Y-95852380D02*
X132376190Y-94852380D01*
X132280952Y-94995238D01*
X132185714Y-95090476D01*
X132090476Y-95138095D01*
%TO.C,R7*%
X128333333Y-83452380D02*
X128000000Y-82976190D01*
X127761904Y-83452380D02*
X127761904Y-82452380D01*
X128142857Y-82452380D01*
X128238095Y-82500000D01*
X128285714Y-82547619D01*
X128333333Y-82642857D01*
X128333333Y-82785714D01*
X128285714Y-82880952D01*
X128238095Y-82928571D01*
X128142857Y-82976190D01*
X127761904Y-82976190D01*
X128666666Y-82452380D02*
X129333333Y-82452380D01*
X128904761Y-83452380D01*
%TO.C,C3*%
X132257142Y-76266666D02*
X132304761Y-76314285D01*
X132352380Y-76457142D01*
X132352380Y-76552380D01*
X132304761Y-76695238D01*
X132209523Y-76790476D01*
X132114285Y-76838095D01*
X131923809Y-76885714D01*
X131780952Y-76885714D01*
X131590476Y-76838095D01*
X131495238Y-76790476D01*
X131400000Y-76695238D01*
X131352380Y-76552380D01*
X131352380Y-76457142D01*
X131400000Y-76314285D01*
X131447619Y-76266666D01*
X131352380Y-75933333D02*
X131352380Y-75314285D01*
X131733333Y-75647619D01*
X131733333Y-75504761D01*
X131780952Y-75409523D01*
X131828571Y-75361904D01*
X131923809Y-75314285D01*
X132161904Y-75314285D01*
X132257142Y-75361904D01*
X132304761Y-75409523D01*
X132352380Y-75504761D01*
X132352380Y-75790476D01*
X132304761Y-75885714D01*
X132257142Y-75933333D01*
%TO.C,D1*%
X129622380Y-102738095D02*
X128622380Y-102738095D01*
X128622380Y-102500000D01*
X128670000Y-102357142D01*
X128765238Y-102261904D01*
X128860476Y-102214285D01*
X129050952Y-102166666D01*
X129193809Y-102166666D01*
X129384285Y-102214285D01*
X129479523Y-102261904D01*
X129574761Y-102357142D01*
X129622380Y-102500000D01*
X129622380Y-102738095D01*
X129622380Y-101214285D02*
X129622380Y-101785714D01*
X129622380Y-101500000D02*
X128622380Y-101500000D01*
X128765238Y-101595238D01*
X128860476Y-101690476D01*
X128908095Y-101785714D01*
%TO.C,R8*%
X129652380Y-98766666D02*
X129176190Y-99100000D01*
X129652380Y-99338095D02*
X128652380Y-99338095D01*
X128652380Y-98957142D01*
X128700000Y-98861904D01*
X128747619Y-98814285D01*
X128842857Y-98766666D01*
X128985714Y-98766666D01*
X129080952Y-98814285D01*
X129128571Y-98861904D01*
X129176190Y-98957142D01*
X129176190Y-99338095D01*
X129080952Y-98195238D02*
X129033333Y-98290476D01*
X128985714Y-98338095D01*
X128890476Y-98385714D01*
X128842857Y-98385714D01*
X128747619Y-98338095D01*
X128700000Y-98290476D01*
X128652380Y-98195238D01*
X128652380Y-98004761D01*
X128700000Y-97909523D01*
X128747619Y-97861904D01*
X128842857Y-97814285D01*
X128890476Y-97814285D01*
X128985714Y-97861904D01*
X129033333Y-97909523D01*
X129080952Y-98004761D01*
X129080952Y-98195238D01*
X129128571Y-98290476D01*
X129176190Y-98338095D01*
X129271428Y-98385714D01*
X129461904Y-98385714D01*
X129557142Y-98338095D01*
X129604761Y-98290476D01*
X129652380Y-98195238D01*
X129652380Y-98004761D01*
X129604761Y-97909523D01*
X129557142Y-97861904D01*
X129461904Y-97814285D01*
X129271428Y-97814285D01*
X129176190Y-97861904D01*
X129128571Y-97909523D01*
X129080952Y-98004761D01*
%TO.C,U3*%
X123238095Y-87452380D02*
X123238095Y-88261904D01*
X123285714Y-88357142D01*
X123333333Y-88404761D01*
X123428571Y-88452380D01*
X123619047Y-88452380D01*
X123714285Y-88404761D01*
X123761904Y-88357142D01*
X123809523Y-88261904D01*
X123809523Y-87452380D01*
X124190476Y-87452380D02*
X124809523Y-87452380D01*
X124476190Y-87833333D01*
X124619047Y-87833333D01*
X124714285Y-87880952D01*
X124761904Y-87928571D01*
X124809523Y-88023809D01*
X124809523Y-88261904D01*
X124761904Y-88357142D01*
X124714285Y-88404761D01*
X124619047Y-88452380D01*
X124333333Y-88452380D01*
X124238095Y-88404761D01*
X124190476Y-88357142D01*
%TO.C,R6*%
X126433333Y-83452380D02*
X126100000Y-82976190D01*
X125861904Y-83452380D02*
X125861904Y-82452380D01*
X126242857Y-82452380D01*
X126338095Y-82500000D01*
X126385714Y-82547619D01*
X126433333Y-82642857D01*
X126433333Y-82785714D01*
X126385714Y-82880952D01*
X126338095Y-82928571D01*
X126242857Y-82976190D01*
X125861904Y-82976190D01*
X127290476Y-82452380D02*
X127100000Y-82452380D01*
X127004761Y-82500000D01*
X126957142Y-82547619D01*
X126861904Y-82690476D01*
X126814285Y-82880952D01*
X126814285Y-83261904D01*
X126861904Y-83357142D01*
X126909523Y-83404761D01*
X127004761Y-83452380D01*
X127195238Y-83452380D01*
X127290476Y-83404761D01*
X127338095Y-83357142D01*
X127385714Y-83261904D01*
X127385714Y-83023809D01*
X127338095Y-82928571D01*
X127290476Y-82880952D01*
X127195238Y-82833333D01*
X127004761Y-82833333D01*
X126909523Y-82880952D01*
X126861904Y-82928571D01*
X126814285Y-83023809D01*
%TO.C,C8*%
X122533333Y-83357142D02*
X122485714Y-83404761D01*
X122342857Y-83452380D01*
X122247619Y-83452380D01*
X122104761Y-83404761D01*
X122009523Y-83309523D01*
X121961904Y-83214285D01*
X121914285Y-83023809D01*
X121914285Y-82880952D01*
X121961904Y-82690476D01*
X122009523Y-82595238D01*
X122104761Y-82500000D01*
X122247619Y-82452380D01*
X122342857Y-82452380D01*
X122485714Y-82500000D01*
X122533333Y-82547619D01*
X123104761Y-82880952D02*
X123009523Y-82833333D01*
X122961904Y-82785714D01*
X122914285Y-82690476D01*
X122914285Y-82642857D01*
X122961904Y-82547619D01*
X123009523Y-82500000D01*
X123104761Y-82452380D01*
X123295238Y-82452380D01*
X123390476Y-82500000D01*
X123438095Y-82547619D01*
X123485714Y-82642857D01*
X123485714Y-82690476D01*
X123438095Y-82785714D01*
X123390476Y-82833333D01*
X123295238Y-82880952D01*
X123104761Y-82880952D01*
X123009523Y-82928571D01*
X122961904Y-82976190D01*
X122914285Y-83071428D01*
X122914285Y-83261904D01*
X122961904Y-83357142D01*
X123009523Y-83404761D01*
X123104761Y-83452380D01*
X123295238Y-83452380D01*
X123390476Y-83404761D01*
X123438095Y-83357142D01*
X123485714Y-83261904D01*
X123485714Y-83071428D01*
X123438095Y-82976190D01*
X123390476Y-82928571D01*
X123295238Y-82880952D01*
%TO.C,C5*%
X120733333Y-82157142D02*
X120685714Y-82204761D01*
X120542857Y-82252380D01*
X120447619Y-82252380D01*
X120304761Y-82204761D01*
X120209523Y-82109523D01*
X120161904Y-82014285D01*
X120114285Y-81823809D01*
X120114285Y-81680952D01*
X120161904Y-81490476D01*
X120209523Y-81395238D01*
X120304761Y-81300000D01*
X120447619Y-81252380D01*
X120542857Y-81252380D01*
X120685714Y-81300000D01*
X120733333Y-81347619D01*
X121638095Y-81252380D02*
X121161904Y-81252380D01*
X121114285Y-81728571D01*
X121161904Y-81680952D01*
X121257142Y-81633333D01*
X121495238Y-81633333D01*
X121590476Y-81680952D01*
X121638095Y-81728571D01*
X121685714Y-81823809D01*
X121685714Y-82061904D01*
X121638095Y-82157142D01*
X121590476Y-82204761D01*
X121495238Y-82252380D01*
X121257142Y-82252380D01*
X121161904Y-82204761D01*
X121114285Y-82157142D01*
%TO.C,R4*%
X118433333Y-87652380D02*
X118100000Y-87176190D01*
X117861904Y-87652380D02*
X117861904Y-86652380D01*
X118242857Y-86652380D01*
X118338095Y-86700000D01*
X118385714Y-86747619D01*
X118433333Y-86842857D01*
X118433333Y-86985714D01*
X118385714Y-87080952D01*
X118338095Y-87128571D01*
X118242857Y-87176190D01*
X117861904Y-87176190D01*
X119290476Y-86985714D02*
X119290476Y-87652380D01*
X119052380Y-86604761D02*
X118814285Y-87319047D01*
X119433333Y-87319047D01*
D11*
%TO.C,R2*%
X130270000Y-69246359D02*
X130270000Y-69553641D01*
X131030000Y-69246359D02*
X131030000Y-69553641D01*
%TO.C,R5*%
X118962742Y-98277500D02*
X119437258Y-98277500D01*
X118962742Y-99322500D02*
X119437258Y-99322500D01*
%TO.C,Y1*%
X117800000Y-103650000D02*
X121800000Y-103650000D01*
X117800000Y-100350000D02*
X117800000Y-103650000D01*
%TO.C,U1*%
X117200000Y-86100000D02*
X117200000Y-83100000D01*
X119200000Y-83100000D02*
X119200000Y-86100000D01*
D12*
X117477500Y-86400000D02*
G75*
G03*
X117477500Y-86400000I-77500J0D01*
G01*
D11*
%TO.C,C12*%
X118740580Y-95110000D02*
X118459420Y-95110000D01*
X118740580Y-94090000D02*
X118459420Y-94090000D01*
%TO.C,C4*%
X130207836Y-81640000D02*
X129992164Y-81640000D01*
X130207836Y-82360000D02*
X129992164Y-82360000D01*
%TO.C,R3*%
X118830000Y-69046359D02*
X118830000Y-69353641D01*
X118070000Y-69046359D02*
X118070000Y-69353641D01*
%TO.C,U2*%
X128040000Y-79000000D02*
X128040000Y-78200000D01*
X131160000Y-79000000D02*
X131160000Y-79800000D01*
X131160000Y-79000000D02*
X131160000Y-77200000D01*
X128040000Y-79000000D02*
X128040000Y-79800000D01*
%TO.C,R1*%
X121722500Y-78182742D02*
X121722500Y-78657258D01*
X120677500Y-78182742D02*
X120677500Y-78657258D01*
%TO.C,C9*%
X124290000Y-99659420D02*
X124290000Y-99940580D01*
X125310000Y-99659420D02*
X125310000Y-99940580D01*
%TO.C,C2*%
X119640580Y-105310000D02*
X119359420Y-105310000D01*
X119640580Y-104290000D02*
X119359420Y-104290000D01*
%TO.C,C10*%
X131259420Y-91890000D02*
X131540580Y-91890000D01*
X131259420Y-92910000D02*
X131540580Y-92910000D01*
%TO.C,C14*%
X131259420Y-88890000D02*
X131540580Y-88890000D01*
X131259420Y-89910000D02*
X131540580Y-89910000D01*
%TO.C,C1*%
X123510000Y-101940580D02*
X123510000Y-101659420D01*
X122490000Y-101940580D02*
X122490000Y-101659420D01*
%TO.C,C13*%
X118740580Y-89890000D02*
X118459420Y-89890000D01*
X118740580Y-90910000D02*
X118459420Y-90910000D01*
%TO.C,J2*%
X121625000Y-111730000D02*
X121475000Y-111767500D01*
X121475000Y-111767500D02*
X121325000Y-111730000D01*
X126475000Y-111767500D02*
X126325000Y-111730000D01*
X129285000Y-112377500D02*
X119915000Y-112377500D01*
X122475000Y-106807500D02*
X122475000Y-106757500D01*
X122875000Y-110267500D02*
X122875000Y-111730000D01*
X125475000Y-106757500D02*
X125475000Y-106807500D01*
X128735000Y-108767500D02*
X120465000Y-108767500D01*
X119915000Y-112377500D02*
X119915000Y-106757500D01*
X122725000Y-111767500D02*
X122575000Y-111730000D01*
X125375000Y-111730000D02*
X125225000Y-111767500D01*
X127875000Y-110267500D02*
X127875000Y-111730000D01*
X126625000Y-110267500D02*
X126625000Y-111730000D01*
X127875000Y-111730000D02*
X127725000Y-111767500D01*
X127475000Y-106757500D02*
X126725000Y-106757500D01*
X121625000Y-110267500D02*
X121625000Y-111730000D01*
X127975000Y-106807500D02*
X127975000Y-106757500D01*
X129285000Y-106757500D02*
X129285000Y-112377500D01*
X128735000Y-110267500D02*
X120465000Y-110267500D01*
X126225000Y-106757500D02*
X125475000Y-106757500D01*
X123825000Y-111730000D02*
X123825000Y-110267500D01*
X125225000Y-111767500D02*
X125075000Y-111730000D01*
X127975000Y-106757500D02*
X129285000Y-106757500D01*
X127425000Y-105667500D02*
X127725000Y-106267500D01*
X127725000Y-111767500D02*
X127575000Y-111730000D01*
X126725000Y-106757500D02*
X126725000Y-106807500D01*
X125075000Y-111730000D02*
X125075000Y-110267500D01*
X122875000Y-111730000D02*
X122725000Y-111767500D01*
X122475000Y-106757500D02*
X121725000Y-106757500D01*
X123725000Y-106807500D02*
X123725000Y-106757500D01*
X124975000Y-106757500D02*
X124225000Y-106757500D01*
X123975000Y-111767500D02*
X123825000Y-111730000D01*
X123725000Y-106757500D02*
X122975000Y-106757500D01*
X127475000Y-106807500D02*
X127475000Y-106757500D01*
X126225000Y-106807500D02*
X126225000Y-106757500D01*
X124975000Y-106807500D02*
X124975000Y-106757500D01*
X124125000Y-110267500D02*
X124125000Y-111730000D01*
X126325000Y-111730000D02*
X126325000Y-110267500D01*
X119915000Y-106757500D02*
X121225000Y-106757500D01*
X122575000Y-111730000D02*
X122575000Y-110267500D01*
X121725000Y-106757500D02*
X121725000Y-106807500D01*
X120465000Y-112377500D02*
X120465000Y-106757500D01*
X125375000Y-110267500D02*
X125375000Y-111730000D01*
X128025000Y-105667500D02*
X127425000Y-105667500D01*
X128735000Y-112377500D02*
X128735000Y-106757500D01*
X127725000Y-106267500D02*
X128025000Y-105667500D01*
X121225000Y-106757500D02*
X121225000Y-106807500D01*
X124225000Y-106757500D02*
X124225000Y-106807500D01*
X122975000Y-106757500D02*
X122975000Y-106807500D01*
X127575000Y-111730000D02*
X127575000Y-110267500D01*
X126625000Y-111730000D02*
X126475000Y-111767500D01*
X121325000Y-111730000D02*
X121325000Y-110267500D01*
X124125000Y-111730000D02*
X123975000Y-111767500D01*
%TO.C,C7*%
X125510000Y-85340580D02*
X125510000Y-85059420D01*
X124490000Y-85340580D02*
X124490000Y-85059420D01*
%TO.C,C15*%
X131259420Y-88110000D02*
X131540580Y-88110000D01*
X131259420Y-87090000D02*
X131540580Y-87090000D01*
%TO.C,C6*%
X126090000Y-99659420D02*
X126090000Y-99940580D01*
X127110000Y-99659420D02*
X127110000Y-99940580D01*
%TO.C,SW1*%
X120200000Y-79200000D02*
X119700000Y-79200000D01*
X120200000Y-79200000D02*
X120200000Y-74800000D01*
X120200000Y-74800000D02*
X119700000Y-74800000D01*
X117000000Y-79200000D02*
X117500000Y-79200000D01*
X117000000Y-79200000D02*
X117000000Y-74800000D01*
X117000000Y-74800000D02*
X117500000Y-74800000D01*
X119600000Y-77000000D02*
G75*
G03*
X119600000Y-77000000I-1000000J0D01*
G01*
%TO.C,C11*%
X131259420Y-94510000D02*
X131540580Y-94510000D01*
X131259420Y-93490000D02*
X131540580Y-93490000D01*
%TO.C,R7*%
X128922500Y-84962742D02*
X128922500Y-85437258D01*
X127877500Y-84962742D02*
X127877500Y-85437258D01*
%TO.C,C3*%
X132260000Y-78092164D02*
X132260000Y-78307836D01*
X131540000Y-78092164D02*
X131540000Y-78307836D01*
%TO.C,D1*%
X131335000Y-103485000D02*
X131335000Y-101200000D01*
X129865000Y-101200000D02*
X129865000Y-103485000D01*
X129865000Y-103485000D02*
X131335000Y-103485000D01*
%TO.C,R8*%
X130077500Y-98362742D02*
X130077500Y-98837258D01*
X131122500Y-98362742D02*
X131122500Y-98837258D01*
%TO.C,U3*%
X122040000Y-89390000D02*
X121390000Y-89390000D01*
X128610000Y-89390000D02*
X128610000Y-90040000D01*
X127960000Y-96610000D02*
X128610000Y-96610000D01*
X127960000Y-89390000D02*
X128610000Y-89390000D01*
X128610000Y-96610000D02*
X128610000Y-95960000D01*
X122040000Y-96610000D02*
X121390000Y-96610000D01*
X121390000Y-96610000D02*
X121390000Y-95960000D01*
%TO.C,R6*%
X126277500Y-84962742D02*
X126277500Y-85437258D01*
X127322500Y-84962742D02*
X127322500Y-85437258D01*
%TO.C,C8*%
X122690000Y-85340580D02*
X122690000Y-85059420D01*
X123710000Y-85340580D02*
X123710000Y-85059420D01*
%TO.C,J1*%
X120020000Y-68130000D02*
X120020000Y-70050000D01*
X129180000Y-70050000D02*
X129180000Y-68130000D01*
X129180000Y-64415000D02*
X129180000Y-66120000D01*
X120020000Y-64415000D02*
X129180000Y-64415000D01*
X120020000Y-66120000D02*
X120020000Y-64415000D01*
%TO.C,C5*%
X118259420Y-80890000D02*
X118540580Y-80890000D01*
X118259420Y-81910000D02*
X118540580Y-81910000D01*
%TO.C,R4*%
X118362742Y-89122500D02*
X118837258Y-89122500D01*
X118362742Y-88077500D02*
X118837258Y-88077500D01*
%TD*%
M02*
